<svg width="49" height="48" viewBox="0 0 49 48" fill="none" xmlns="http://www.w3.org/2000/svg">
<circle cx="20.8534" cy="19.6614" r="13.2711" stroke="white" stroke-width="2"/>
<path d="M30.3647 29.7525C30.6959 29.4334 31.2051 29.4045 31.5688 29.6714L31.6401 29.7291L42.062 39.0484C42.3628 39.3174 42.5113 39.6375 42.4927 39.9205L42.4741 40.0386C42.2158 41.0882 41.4084 41.6658 40.5962 41.9449L40.4341 41.9966C40.1347 42.0854 39.7817 41.9829 39.4849 41.7076L39.3618 41.5787L30.3042 31.0386C30.0007 30.6854 30.005 30.1673 30.3013 29.8199L30.3647 29.7525Z" fill="white" stroke="white"/>
<path d="M26.2108 13.5782C26.2108 21.3496 23.4434 21.7171 21.207 21.7171C25.4683 21.7171 26.2108 26.8642 26.2108 29.856C26.2108 22.3997 29.501 21.7171 31.2145 21.7171C27.0178 21.7171 26.2108 16.3217 26.2108 13.5782Z" fill="white"/>
</svg>
