<svg width="49" height="48" viewBox="0 0 49 48" fill="none" xmlns="http://www.w3.org/2000/svg">
<g clip-path="url(#clip0_1039_1825)">
<path d="M17.8827 11.6553C17.8827 9.53615 17.4109 5.64575 25.0176 5.64575C32.2009 5.64575 31.8594 9.59993 31.9113 11.6553" stroke="white" stroke-width="2" stroke-linecap="round"/>
<path d="M17.8827 16.367C17.8827 18.4861 17.4109 22.3765 25.0176 22.3765C32.2009 22.3765 31.8594 18.4224 31.9113 16.367" stroke="white" stroke-width="2" stroke-linecap="round"/>
<path d="M37.8207 11.6553H11.5355C9.2024 11.6553 8.49102 14.4535 8.49102 15.9279L6.15796 35.0421C6.15796 38.0405 7.53104 39.1648 10.9907 39.1648H39.4038C42.9367 39.1648 43.7088 36.4164 43.6533 35.0421C43.0145 30.0449 41.6535 19.226 41.3203 15.9279C40.987 12.6297 39.7745 11.6553 37.8207 11.6553Z" stroke="white" stroke-width="2"/>
</g>
<defs>
<clipPath id="clip0_1039_1825">
<rect width="39.9981" height="39.9981" fill="white" transform="translate(4.90796 3.99982)"/>
</clipPath>
</defs>
</svg>
