<svg width="49" height="48" viewBox="0 0 49 48" fill="none" xmlns="http://www.w3.org/2000/svg">
<circle cx="20.8534" cy="19.6614" r="13.2711" stroke="white" stroke-width="2"/>
<path d="M39.3616 41.5786L30.3042 31.0382C29.9805 30.6615 30.0069 30.0975 30.3645 29.7527C30.7178 29.4121 31.274 29.4016 31.6398 29.7287L42.062 39.0482C42.4058 39.3555 42.5503 39.7299 42.4742 40.039C42.1987 41.1585 41.2983 41.7401 40.434 41.9963C40.0917 42.0978 39.6802 41.9494 39.3616 41.5786Z" fill="white" stroke="white"/>
<path d="M26.2108 13.5782C26.2108 21.3496 23.4434 21.7171 21.207 21.7171C25.4683 21.7171 26.2108 26.8642 26.2108 29.856C26.2108 22.3997 29.501 21.7171 31.2145 21.7171C27.0178 21.7171 26.2108 16.3217 26.2108 13.5782Z" fill="white"/>
</svg>
