<svg width="207" height="69" viewBox="0 0 207 69" fill="none" xmlns="http://www.w3.org/2000/svg">
<path d="M76.8311 27.1024C77.5777 27.1024 78.2711 27.2024 78.9111 27.4024C79.5644 27.6024 80.1844 27.9024 80.7711 28.3024H80.7911L80.7511 27.2224H81.8311L81.5911 31.8424H80.8711C80.8044 30.589 80.4177 29.6224 79.7111 28.9424C79.0044 28.2624 78.0711 27.9224 76.9111 27.9224C76.2044 27.9224 75.5311 28.0757 74.8911 28.3824C74.2644 28.6757 73.6977 29.1024 73.1911 29.6624C72.6977 30.2224 72.2977 30.8957 71.9911 31.6824C71.6977 32.469 71.5244 33.3557 71.4711 34.3424C71.4044 35.5957 71.5844 36.7024 72.0111 37.6624C72.4511 38.6224 73.0577 39.369 73.8311 39.9024C74.6177 40.4357 75.5044 40.7024 76.4911 40.7024C77.3577 40.7024 78.2177 40.5157 79.0711 40.1424C79.9244 39.7557 80.6377 39.1957 81.2111 38.4624L81.7111 38.8824C81.0977 39.6557 80.4444 40.249 79.7511 40.6624C79.0577 41.0757 78.3777 41.3557 77.7111 41.5024C77.0577 41.6624 76.4577 41.7424 75.9111 41.7424C74.9111 41.7424 74.0111 41.5624 73.2111 41.2024C72.4111 40.8424 71.7311 40.3424 71.1711 39.7024C70.6111 39.049 70.1911 38.2957 69.9111 37.4424C69.6444 36.5757 69.5377 35.6424 69.5911 34.6424C69.6444 33.6957 69.8311 32.7757 70.1511 31.8824C70.4711 30.989 70.9311 30.1824 71.5311 29.4624C72.1311 28.7424 72.8711 28.169 73.7511 27.7424C74.6444 27.3157 75.6711 27.1024 76.8311 27.1024ZM86.322 41.4224C86.3087 41.329 86.302 41.249 86.302 41.1824C86.302 41.1024 86.302 41.009 86.302 40.9024C86.302 40.6757 86.3087 40.409 86.322 40.1024C86.3353 39.7824 86.362 39.3624 86.402 38.8424C86.4553 38.3224 86.5287 37.6424 86.622 36.8024C86.7153 35.9357 86.7887 35.2824 86.842 34.8424C86.8953 34.4024 86.9353 34.0824 86.962 33.8824C86.9887 33.669 87.002 33.4957 87.002 33.3624C87.0153 33.0957 86.9953 32.8357 86.942 32.5824C86.902 32.329 86.742 32.2024 86.462 32.2024C86.2487 32.2024 86.002 32.349 85.722 32.6424C85.442 32.9357 85.202 33.4357 85.002 34.1424L84.442 34.0224C84.482 33.7824 84.562 33.509 84.682 33.2024C84.8153 32.8824 84.9887 32.569 85.202 32.2624C85.4153 31.9557 85.6753 31.7024 85.982 31.5024C86.2887 31.3024 86.642 31.2024 87.042 31.2024C87.642 31.2024 88.042 31.409 88.242 31.8224C88.442 32.2357 88.5287 32.789 88.502 33.4824C88.4887 33.7757 88.4487 34.1024 88.382 34.4624C88.3287 34.809 88.2687 35.1757 88.202 35.5624H88.262C88.6487 34.4024 89.0487 33.509 89.462 32.8824C89.8887 32.2557 90.3153 31.8224 90.742 31.5824C91.182 31.329 91.6153 31.2024 92.042 31.2024C92.442 31.2024 92.7753 31.309 93.042 31.5224C93.3087 31.7224 93.442 32.0024 93.442 32.3624C93.442 32.6024 93.3553 32.8224 93.182 33.0224C93.022 33.2224 92.802 33.3224 92.522 33.3224C92.282 33.3224 92.0753 33.249 91.902 33.1024C91.7287 32.9557 91.6287 32.749 91.602 32.4824C91.2287 32.4024 90.862 32.5224 90.502 32.8424C90.1553 33.1624 89.822 33.6224 89.502 34.2224C89.1953 34.809 88.922 35.469 88.682 36.2024C88.4553 36.9357 88.2753 37.6824 88.142 38.4424C88.0087 39.2024 87.942 39.909 87.942 40.5624C87.942 40.7624 87.942 40.9157 87.942 41.0224C87.9553 41.1157 87.9687 41.249 87.982 41.4224H86.322ZM96.9375 46.8424C96.4841 46.8157 96.1175 46.6824 95.8375 46.4424C95.5575 46.2157 95.4175 45.929 95.4175 45.5824C95.4175 45.2757 95.5108 45.0424 95.6975 44.8824C95.8841 44.7357 96.0641 44.6624 96.2375 44.6624C96.8375 44.6624 97.1241 45.009 97.0975 45.7024C97.1775 45.7424 97.2508 45.7757 97.3175 45.8024C97.3841 45.829 97.4575 45.8424 97.5375 45.8424C97.8308 45.8557 98.1308 45.749 98.4375 45.5224C98.7575 45.2957 99.0575 45.009 99.3375 44.6624C99.6308 44.329 99.8841 43.9957 100.097 43.6624C100.324 43.3424 100.491 43.0957 100.597 42.9224C100.477 42.149 100.337 41.3557 100.177 40.5424C100.017 39.7157 99.8308 38.8957 99.6175 38.0824C99.4175 37.2557 99.1908 36.4624 98.9375 35.7024C98.6975 34.929 98.4375 34.2024 98.1575 33.5224C98.0641 33.2957 97.9441 33.0624 97.7975 32.8224C97.6508 32.5824 97.4441 32.4757 97.1775 32.5024C96.9241 32.529 96.7308 32.729 96.5975 33.1024C96.4775 33.4757 96.4441 33.969 96.4975 34.5824L95.8575 34.6624C95.8175 34.3024 95.8108 33.9224 95.8375 33.5224C95.8775 33.1224 95.9641 32.749 96.0975 32.4024C96.2308 32.0424 96.4241 31.7557 96.6775 31.5424C96.9308 31.3157 97.2641 31.2024 97.6775 31.2024C98.1308 31.2024 98.4975 31.3224 98.7775 31.5624C99.0708 31.8024 99.3041 32.0957 99.4775 32.4424C99.6641 32.789 99.8175 33.129 99.9375 33.4624C100.191 34.1424 100.437 34.9224 100.677 35.8024C100.917 36.6824 101.124 37.5824 101.297 38.5024C101.484 39.409 101.624 40.2557 101.717 41.0424H101.757C102.131 40.389 102.491 39.669 102.837 38.8824C103.184 38.0957 103.471 37.2957 103.697 36.4824C103.924 35.6557 104.037 34.8824 104.037 34.1624C104.037 33.829 104.004 33.5357 103.937 33.2824C103.884 33.029 103.817 32.849 103.737 32.7424C103.684 32.7824 103.611 32.8157 103.517 32.8424C103.437 32.8557 103.344 32.8624 103.237 32.8624C102.997 32.8624 102.804 32.789 102.657 32.6424C102.511 32.4824 102.437 32.2957 102.437 32.0824C102.437 31.789 102.531 31.569 102.717 31.4224C102.917 31.2757 103.137 31.2024 103.377 31.2024C103.791 31.2024 104.111 31.329 104.337 31.5824C104.564 31.8357 104.724 32.1557 104.817 32.5424C104.924 32.929 104.977 33.3357 104.977 33.7624C104.977 34.6424 104.851 35.5424 104.597 36.4624C104.344 37.3824 104.011 38.289 103.597 39.1824C103.197 40.0757 102.771 40.9357 102.317 41.7624C101.651 42.9624 101.011 43.9424 100.397 44.7024C99.7975 45.4624 99.2108 46.009 98.6375 46.3424C98.0641 46.689 97.4975 46.8557 96.9375 46.8424ZM111.731 41.6424C111.198 41.6424 110.684 41.5624 110.191 41.4024C109.698 41.229 109.298 40.9824 108.991 40.6624C108.684 40.3424 108.531 39.9557 108.531 39.5024C108.531 39.209 108.611 38.9757 108.771 38.8024C108.944 38.6157 109.151 38.5224 109.391 38.5224C109.658 38.5224 109.858 38.609 109.991 38.7824C110.138 38.9557 110.211 39.149 110.211 39.3624C110.211 39.4557 110.198 39.5557 110.171 39.6624C110.144 39.769 110.098 39.8757 110.031 39.9824C110.138 40.2757 110.351 40.5024 110.671 40.6624C110.991 40.8224 111.331 40.9024 111.691 40.9024C112.411 40.9024 112.951 40.7357 113.311 40.4024C113.671 40.069 113.851 39.6024 113.851 39.0024C113.851 38.6424 113.724 38.3224 113.471 38.0424C113.218 37.7624 112.898 37.5024 112.511 37.2624C112.124 37.009 111.724 36.7624 111.311 36.5224C110.924 36.2824 110.551 36.0357 110.191 35.7824C109.844 35.529 109.558 35.249 109.331 34.9424C109.118 34.6357 109.011 34.289 109.011 33.9024C109.011 33.409 109.158 32.9624 109.451 32.5624C109.744 32.149 110.151 31.8224 110.671 31.5824C111.191 31.329 111.791 31.2024 112.471 31.2024C112.978 31.2024 113.451 31.2824 113.891 31.4424C114.344 31.6024 114.711 31.829 114.991 32.1224C115.284 32.4157 115.431 32.7624 115.431 33.1624C115.431 33.4424 115.351 33.669 115.191 33.8424C115.031 34.0024 114.831 34.0824 114.591 34.0824C114.351 34.0824 114.158 34.0024 114.011 33.8424C113.864 33.6824 113.791 33.4957 113.791 33.2824C113.791 33.1757 113.804 33.0757 113.831 32.9824C113.858 32.8757 113.904 32.769 113.971 32.6624C113.904 32.4357 113.738 32.249 113.471 32.1024C113.218 31.9424 112.864 31.8624 112.411 31.8624C112.118 31.8624 111.831 31.929 111.551 32.0624C111.271 32.1957 111.038 32.3824 110.851 32.6224C110.664 32.849 110.571 33.1224 110.571 33.4424C110.571 33.6957 110.644 33.929 110.791 34.1424C110.951 34.3557 111.158 34.5557 111.411 34.7424C111.664 34.929 111.938 35.1157 112.231 35.3024C112.711 35.5824 113.204 35.8824 113.711 36.2024C114.218 36.509 114.638 36.8624 114.971 37.2624C115.318 37.6624 115.491 38.149 115.491 38.7224C115.491 39.2824 115.331 39.7824 115.011 40.2224C114.704 40.6624 114.264 41.009 113.691 41.2624C113.131 41.5157 112.478 41.6424 111.731 41.6424ZM122.826 28.6024L122.466 31.4224H125.646L125.586 32.1824L122.386 32.2224C122.332 32.7824 122.266 33.3624 122.186 33.9624C122.119 34.549 122.059 35.1357 122.006 35.7224C121.952 36.309 121.906 36.8757 121.866 37.4224C121.826 37.9557 121.806 38.4424 121.806 38.8824C121.806 39.1357 121.819 39.4024 121.846 39.6824C121.886 39.949 121.972 40.1757 122.106 40.3624C122.239 40.5357 122.452 40.6224 122.746 40.6224C122.879 40.6224 123.039 40.5957 123.226 40.5424C123.426 40.489 123.646 40.3624 123.886 40.1624C124.126 39.9624 124.372 39.649 124.626 39.2224L125.146 39.5624C124.759 40.2424 124.339 40.7624 123.886 41.1224C123.446 41.469 122.906 41.6424 122.266 41.6424C121.746 41.6424 121.332 41.5357 121.026 41.3224C120.732 41.0957 120.519 40.8024 120.386 40.4424C120.252 40.0824 120.186 39.6957 120.186 39.2824C120.186 38.7757 120.206 38.1624 120.246 37.4424C120.286 36.709 120.346 35.9024 120.426 35.0224C120.506 34.129 120.599 33.2024 120.706 32.2424L118.926 32.2624L118.986 31.4224C119.906 31.4224 120.586 31.1757 121.026 30.6824C121.466 30.189 121.812 29.4957 122.066 28.6024H122.826ZM134.351 31.2024C134.751 31.2024 135.191 31.2357 135.671 31.3024C136.151 31.3557 136.604 31.4357 137.031 31.5424C136.924 32.3424 136.817 33.1424 136.711 33.9424C136.617 34.729 136.524 35.4824 136.431 36.2024C136.351 36.909 136.284 37.549 136.231 38.1224C136.177 38.6824 136.151 39.1224 136.151 39.4424C136.151 39.709 136.171 39.9757 136.211 40.2424C136.251 40.509 136.417 40.6424 136.711 40.6424C136.937 40.6424 137.184 40.4957 137.451 40.2024C137.731 39.909 137.971 39.409 138.171 38.7024L138.731 38.8224C138.691 39.0624 138.604 39.3424 138.471 39.6624C138.351 39.969 138.184 40.2757 137.971 40.5824C137.757 40.889 137.497 41.1424 137.191 41.3424C136.884 41.5424 136.531 41.6424 136.131 41.6424C135.597 41.6424 135.217 41.4757 134.991 41.1424C134.764 40.809 134.651 40.3757 134.651 39.8424C134.651 39.4557 134.684 39.0357 134.751 38.5824C134.831 38.129 134.917 37.6557 135.011 37.1624H134.951C134.631 38.149 134.297 38.9424 133.951 39.5424C133.617 40.129 133.277 40.5757 132.931 40.8824C132.597 41.189 132.271 41.389 131.951 41.4824C131.631 41.589 131.331 41.6424 131.051 41.6424C130.331 41.6424 129.724 41.3757 129.231 40.8424C128.751 40.309 128.511 39.4157 128.511 38.1624C128.511 37.229 128.631 36.3424 128.871 35.5024C129.111 34.6624 129.471 33.9224 129.951 33.2824C130.444 32.629 131.057 32.1224 131.791 31.7624C132.524 31.389 133.377 31.2024 134.351 31.2024ZM133.731 31.9224C133.131 31.9224 132.604 32.089 132.151 32.4224C131.711 32.7557 131.344 33.209 131.051 33.7824C130.757 34.3424 130.537 34.9757 130.391 35.6824C130.257 36.3757 130.191 37.089 130.191 37.8224C130.191 38.6757 130.284 39.3824 130.471 39.9424C130.657 40.489 130.997 40.7624 131.491 40.7624C131.851 40.7624 132.211 40.5824 132.571 40.2224C132.944 39.8624 133.291 39.3824 133.611 38.7824C133.931 38.169 134.217 37.489 134.471 36.7424C134.724 35.9824 134.924 35.209 135.071 34.4224C135.217 33.6357 135.291 32.8824 135.291 32.1624C135.091 32.0824 134.857 32.0224 134.591 31.9824C134.324 31.9424 134.037 31.9224 133.731 31.9224ZM145.008 26.3224C144.968 26.6557 144.908 27.029 144.828 27.4424C144.761 27.8557 144.694 28.2624 144.628 28.6624C144.574 29.0624 144.528 29.4157 144.488 29.7224C144.408 30.2824 144.328 30.9224 144.248 31.6424C144.168 32.349 144.088 33.089 144.008 33.8624C143.928 34.6224 143.854 35.369 143.788 36.1024C143.734 36.8357 143.688 37.509 143.648 38.1224C143.608 38.7224 143.588 39.2157 143.588 39.6024C143.588 39.8557 143.614 40.0957 143.668 40.3224C143.721 40.5357 143.874 40.6424 144.128 40.6424C144.354 40.6424 144.601 40.5024 144.868 40.2224C145.148 39.929 145.388 39.4224 145.588 38.7024L146.148 38.8424C146.108 39.069 146.021 39.3424 145.888 39.6624C145.768 39.9824 145.601 40.2957 145.388 40.6024C145.174 40.8957 144.914 41.1424 144.608 41.3424C144.314 41.5424 143.968 41.6424 143.568 41.6424C143.021 41.6424 142.621 41.509 142.368 41.2424C142.114 40.9624 141.981 40.5557 141.968 40.0224C141.954 39.689 141.968 39.1957 142.008 38.5424C142.061 37.889 142.121 37.149 142.188 36.3224C142.268 35.4824 142.354 34.609 142.448 33.7024C142.541 32.7824 142.641 31.889 142.748 31.0224C142.854 30.1557 142.954 29.369 143.048 28.6624C143.114 28.3024 143.154 28.069 143.168 27.9624C143.194 27.8424 143.214 27.7157 143.228 27.5824C142.988 27.5957 142.748 27.609 142.508 27.6224C142.281 27.6357 142.048 27.649 141.808 27.6624L141.908 26.8624C142.494 26.8624 142.948 26.8357 143.268 26.7824C143.601 26.729 143.854 26.6624 144.028 26.5824C144.201 26.5024 144.341 26.4157 144.448 26.3224H145.008ZM157.032 41.6424C156.405 41.6424 155.979 41.4757 155.752 41.1424C155.525 40.809 155.412 40.3357 155.412 39.7224C155.412 39.349 155.439 38.909 155.492 38.4024C155.559 37.8824 155.625 37.3357 155.692 36.7624C155.772 36.189 155.839 35.609 155.892 35.0224C155.959 34.4357 155.992 33.8824 155.992 33.3624C155.992 33.2024 155.965 33.029 155.912 32.8424C155.859 32.6557 155.765 32.4957 155.632 32.3624C155.499 32.2157 155.299 32.1424 155.032 32.1424C154.672 32.1424 154.312 32.309 153.952 32.6424C153.592 32.9624 153.245 33.4024 152.912 33.9624C152.592 34.5224 152.299 35.1624 152.032 35.8824C151.779 36.589 151.579 37.329 151.432 38.1024C151.285 38.8624 151.212 39.6157 151.212 40.3624C151.212 40.5624 151.212 40.749 151.212 40.9224C151.225 41.0824 151.239 41.249 151.252 41.4224H149.612C149.599 41.329 149.592 41.249 149.592 41.1824C149.592 41.1024 149.592 41.009 149.592 40.9024C149.592 40.5424 149.612 39.989 149.652 39.2424C149.692 38.4957 149.745 37.649 149.812 36.7024C149.879 35.7424 149.952 34.7624 150.032 33.7624C150.125 32.7624 150.219 31.8157 150.312 30.9224C150.405 30.0157 150.499 29.2557 150.592 28.6424C150.645 28.2957 150.679 28.0757 150.692 27.9824C150.719 27.889 150.745 27.7557 150.772 27.5824L149.372 27.6624L149.452 26.8624C150.039 26.8624 150.492 26.8357 150.812 26.7824C151.145 26.729 151.399 26.6624 151.572 26.5824C151.745 26.5024 151.885 26.4157 151.992 26.3224H152.572C152.519 26.6557 152.459 27.029 152.392 27.4424C152.325 27.8557 152.259 28.2624 152.192 28.6624C152.125 29.0624 152.072 29.4157 152.032 29.7224C151.992 30.0557 151.939 30.489 151.872 31.0224C151.819 31.5424 151.759 32.0957 151.692 32.6824C151.639 33.2557 151.585 33.809 151.532 34.3424C151.492 34.8757 151.459 35.3157 151.432 35.6624H151.492C151.945 34.449 152.392 33.5224 152.832 32.8824C153.272 32.2424 153.705 31.8024 154.132 31.5624C154.572 31.3224 155.005 31.2024 155.432 31.2024C156.232 31.2024 156.799 31.4624 157.132 31.9824C157.465 32.489 157.632 33.0957 157.632 33.8024C157.632 34.5357 157.585 35.289 157.492 36.0624C157.399 36.8224 157.305 37.529 157.212 38.1824C157.119 38.8224 157.072 39.3357 157.072 39.7224C157.072 39.9624 157.099 40.1757 157.152 40.3624C157.219 40.549 157.372 40.6424 157.612 40.6424C157.839 40.6424 158.085 40.5024 158.352 40.2224C158.632 39.929 158.872 39.4224 159.072 38.7024L159.572 38.8424C159.532 39.069 159.452 39.3424 159.332 39.6624C159.212 39.9824 159.045 40.2957 158.832 40.6024C158.632 40.8957 158.379 41.1424 158.072 41.3424C157.779 41.5424 157.432 41.6424 157.032 41.6424ZM167.557 31.2024C168.277 31.2024 168.924 31.3757 169.497 31.7224C170.07 32.0557 170.524 32.549 170.857 33.2024C171.19 33.8557 171.357 34.649 171.357 35.5824C171.357 36.649 171.164 37.649 170.777 38.5824C170.39 39.5024 169.83 40.2424 169.097 40.8024C168.377 41.3624 167.497 41.6424 166.457 41.6424C165.577 41.6424 164.85 41.4424 164.277 41.0424C163.717 40.6424 163.297 40.1024 163.017 39.4224C162.75 38.7424 162.617 37.989 162.617 37.1624C162.617 36.0824 162.81 35.089 163.197 34.1824C163.597 33.2757 164.164 32.5557 164.897 32.0224C165.644 31.4757 166.53 31.2024 167.557 31.2024ZM167.257 31.9424C166.67 31.929 166.164 32.129 165.737 32.5424C165.31 32.9424 164.977 33.489 164.737 34.1824C164.51 34.8757 164.39 35.649 164.377 36.5024C164.364 36.9557 164.39 37.4357 164.457 37.9424C164.524 38.449 164.637 38.9224 164.797 39.3624C164.97 39.8024 165.204 40.1624 165.497 40.4424C165.804 40.7224 166.184 40.869 166.637 40.8824C167.17 40.8957 167.624 40.7557 167.997 40.4624C168.37 40.1557 168.67 39.7624 168.897 39.2824C169.124 38.8024 169.29 38.289 169.397 37.7424C169.517 37.1957 169.584 36.6824 169.597 36.2024C169.61 35.7357 169.584 35.2557 169.517 34.7624C169.464 34.269 169.35 33.809 169.177 33.3824C169.004 32.9557 168.764 32.6157 168.457 32.3624C168.15 32.0957 167.75 31.9557 167.257 31.9424ZM178.547 26.3224C178.507 26.6557 178.447 27.029 178.367 27.4424C178.3 27.8557 178.234 28.2624 178.167 28.6624C178.114 29.0624 178.067 29.4157 178.027 29.7224C177.947 30.2824 177.867 30.9224 177.787 31.6424C177.707 32.349 177.627 33.089 177.547 33.8624C177.467 34.6224 177.394 35.369 177.327 36.1024C177.274 36.8357 177.227 37.509 177.187 38.1224C177.147 38.7224 177.127 39.2157 177.127 39.6024C177.127 39.8557 177.154 40.0957 177.207 40.3224C177.26 40.5357 177.414 40.6424 177.667 40.6424C177.894 40.6424 178.14 40.5024 178.407 40.2224C178.687 39.929 178.927 39.4224 179.127 38.7024L179.687 38.8424C179.647 39.069 179.56 39.3424 179.427 39.6624C179.307 39.9824 179.14 40.2957 178.927 40.6024C178.714 40.8957 178.454 41.1424 178.147 41.3424C177.854 41.5424 177.507 41.6424 177.107 41.6424C176.56 41.6424 176.16 41.509 175.907 41.2424C175.654 40.9624 175.52 40.5557 175.507 40.0224C175.494 39.689 175.507 39.1957 175.547 38.5424C175.6 37.889 175.66 37.149 175.727 36.3224C175.807 35.4824 175.894 34.609 175.987 33.7024C176.08 32.7824 176.18 31.889 176.287 31.0224C176.394 30.1557 176.494 29.369 176.587 28.6624C176.654 28.3024 176.694 28.069 176.707 27.9624C176.734 27.8424 176.754 27.7157 176.767 27.5824C176.527 27.5957 176.287 27.609 176.047 27.6224C175.82 27.6357 175.587 27.649 175.347 27.6624L175.447 26.8624C176.034 26.8624 176.487 26.8357 176.807 26.7824C177.14 26.729 177.394 26.6624 177.567 26.5824C177.74 26.5024 177.88 26.4157 177.987 26.3224H178.547ZM184.591 31.2024C185.151 31.2024 185.571 31.3957 185.851 31.7824C186.131 32.1557 186.271 32.6557 186.271 33.2824C186.271 33.6824 186.231 34.1424 186.151 34.6624C186.084 35.169 185.998 35.7157 185.891 36.3024C185.784 36.889 185.691 37.4824 185.611 38.0824C185.544 38.669 185.511 39.2424 185.511 39.8024C185.511 40.069 185.558 40.2757 185.651 40.4224C185.758 40.569 185.918 40.6424 186.131 40.6424C186.358 40.6424 186.604 40.4957 186.871 40.2024C187.151 39.909 187.391 39.409 187.591 38.7024L188.151 38.8224C188.098 39.1024 188.004 39.409 187.871 39.7424C187.751 40.0624 187.591 40.369 187.391 40.6624C187.191 40.9424 186.944 41.1757 186.651 41.3624C186.371 41.549 186.044 41.6424 185.671 41.6424C185.058 41.6424 184.604 41.4824 184.311 41.1624C184.018 40.8424 183.871 40.3757 183.871 39.7624C183.871 39.1757 183.911 38.609 183.991 38.0624C184.071 37.5024 184.158 36.9557 184.251 36.4224C184.358 35.8757 184.451 35.329 184.531 34.7824C184.611 34.2357 184.651 33.6757 184.651 33.1024C184.651 32.929 184.611 32.7357 184.531 32.5224C184.464 32.309 184.318 32.2024 184.091 32.2024C183.878 32.2024 183.631 32.349 183.351 32.6424C183.071 32.9357 182.831 33.4357 182.631 34.1424L182.071 34.0224C182.111 33.7824 182.191 33.509 182.311 33.2024C182.431 32.8824 182.591 32.569 182.791 32.2624C183.004 31.9557 183.258 31.7024 183.551 31.5024C183.844 31.3024 184.191 31.2024 184.591 31.2024ZM185.731 26.8824C186.038 26.8824 186.291 26.989 186.491 27.2024C186.691 27.4024 186.791 27.6757 186.791 28.0224C186.791 28.3557 186.684 28.629 186.471 28.8424C186.258 29.0424 186.004 29.1424 185.711 29.1424C185.418 29.1424 185.164 29.0424 184.951 28.8424C184.751 28.629 184.651 28.3557 184.651 28.0224C184.651 27.6757 184.758 27.4024 184.971 27.2024C185.184 26.989 185.438 26.8824 185.731 26.8824ZM195.975 31.2024C196.549 31.2024 197.062 31.309 197.515 31.5224C197.969 31.7224 198.322 32.0024 198.575 32.3624C198.842 32.709 198.975 33.1024 198.975 33.5424C198.975 33.8357 198.902 34.0757 198.755 34.2624C198.609 34.4357 198.402 34.5224 198.135 34.5224C197.815 34.5357 197.589 34.4424 197.455 34.2424C197.335 34.0424 197.275 33.869 197.275 33.7224C197.275 33.6024 197.289 33.4757 197.315 33.3424C197.355 33.209 197.429 33.0824 197.535 32.9624C197.469 32.589 197.282 32.3224 196.975 32.1624C196.682 31.989 196.342 31.9024 195.955 31.9024C195.382 31.9024 194.902 32.0557 194.515 32.3624C194.129 32.669 193.822 33.069 193.595 33.5624C193.369 34.0557 193.202 34.589 193.095 35.1624C193.002 35.7224 192.955 36.269 192.955 36.8024C192.955 37.7357 193.055 38.489 193.255 39.0624C193.469 39.6224 193.762 40.029 194.135 40.2824C194.509 40.5357 194.929 40.6624 195.395 40.6624C195.742 40.6624 196.102 40.589 196.475 40.4424C196.849 40.2824 197.209 40.0224 197.555 39.6624C197.902 39.289 198.202 38.7824 198.455 38.1424L199.155 38.4824C198.822 39.2557 198.435 39.8757 197.995 40.3424C197.555 40.7957 197.082 41.129 196.575 41.3424C196.082 41.5424 195.575 41.6424 195.055 41.6424C193.882 41.6424 192.942 41.289 192.235 40.5824C191.542 39.8624 191.195 38.7557 191.195 37.2624C191.195 36.609 191.289 35.929 191.475 35.2224C191.662 34.5157 191.949 33.8624 192.335 33.2624C192.722 32.649 193.215 32.1557 193.815 31.7824C194.429 31.3957 195.149 31.2024 195.975 31.2024Z" fill="white"/>
<path d="M34.7627 42.9784V46.6477M33.5967 45.2119H35.969M40.0702 40.8246H41.6384M40.9146 39.5483V41.2235V42.5396M39.5877 24.9907V25.7485M29.9377 32.09H30.8625" stroke="white" stroke-width="0.726747" stroke-linecap="round"/>
<path d="M31.8282 26.6614H34.3719" stroke="white" stroke-width="0.726747" stroke-linecap="round"/>
<path d="M10.3419 29.8484C9.93042 29.514 8.90049 29.1743 8.0723 30.4904C7.03706 32.1356 4.72769 37.7133 6.4 39.5591C7.73784 41.0358 10.2755 37.6865 11.3771 35.8273C11.5098 35.3458 11.4248 34.479 10.0233 34.8643C8.27136 35.3458 11.4567 34.7439 11.5762 34.6636C11.6956 34.5834 11.2576 38.1948 12.253 37.3521C13.0494 36.678 13.5404 35.2789 13.6864 34.6636C13.6201 35.319 13.6944 36.5737 14.5226 36.3489C15.3508 36.1242 15.9295 34.4362 16.1153 33.6203C16.1684 37.419 16.0993 45.2009 15.3986 45.9393C14.6978 46.6776 13.9652 46.0597 13.6864 45.6584C13.3945 45.0832 13.2166 43.339 14.8411 40.9635C16.4657 38.588 18.5441 36.0948 19.3803 35.1451M21.1322 32.9382C20.7207 32.9917 19.8262 33.4117 19.5395 34.6636C19.2528 35.9156 19.9244 36.0948 20.296 36.0279C20.8137 35.9076 21.8409 35.8353 21.8091 36.5095C21.7772 37.1836 20.4951 38.4757 19.8581 39.0374C19.4864 39.2247 18.8308 39.3665 19.1812 38.4355C19.6192 37.2719 24.7953 36.0279 26.1889 30.4904C25.313 33.2057 23.8238 39.0134 24.875 40.5221C25.2864 40.7094 26.6269 40.3376 28.6974 37.3521M31.6438 34.8643C31.4315 34.3159 30.7758 33.6043 29.8521 35.1451C28.9283 36.686 28.9894 37.6865 29.1354 37.9941C29.2017 38.2483 29.5654 38.5318 30.4891 37.633C31.4129 36.7342 31.9093 35.4127 32.042 34.8643C31.312 36.4158 30.2104 39.3023 31.6438 38.4355C33.4356 37.3521 37.7358 28.0026 37.5367 26.1166C37.3376 24.2306 31.2058 37.633 33.8736 38.4355C34.577 38.4891 36.2626 38.0824 37.3775 36.0279M38.1738 32.9382C39.6868 32.47 42.7925 30.5707 43.1111 26.7185C43.0182 26.4242 42.689 26.1006 42.1157 27.1599C41.3989 28.4841 38.8905 33.8611 38.5321 37.633C38.9967 35.4662 40.1248 31.5658 40.9211 33.2993C41.16 33.2993 40.3637 36.3088 40.9211 36.8305C41.3671 37.2478 43.8676 34.8643 45.0621 33.6203C44.7436 33.1205 43.9074 32.5411 43.1111 34.2222C42.3147 35.9034 43.2305 36.4475 43.788 36.5095C44.2525 36.3088 45.2054 35.4501 45.301 33.6203C45.2612 34.0216 45.3567 34.7038 46.0575 34.2222C46.9335 33.6203 50.3976 30.6108 50.7161 26.5179C50.7161 26.2504 50.6285 25.8758 50.2781 26.5179C49.8401 27.3204 46.9335 32.6573 47.3317 36.1885C47.7298 39.7196 50.7559 35.4661 51.393 33.6203C50.8621 34.7974 50.0233 37.0873 50.9152 36.8305C51.8071 36.5737 52.9326 34.1286 53.3838 32.9382C52.6406 34.3159 51.6159 36.983 53.4634 36.6298C55.3109 36.2767 57.4451 32.7108 58.2813 30.972M51.393 32.0554L52.1495 32.9382M22.685 33.6203C23.9061 33.6872 26.6269 33.6444 27.7418 32.9382" stroke="white" stroke-width="1.00124" stroke-linecap="round"/>
<path d="M26.1135 40.492C26.59 44.4266 28.8746 49.2783 39.4596 48.6017C34.8048 50.5506 24.2491 51.9185 19.2645 41.7989" stroke="white" stroke-width="1.50185" stroke-linecap="round"/>
<path d="M18.1984 32.5107C19.4538 27.147 25.4236 17.6658 39.2598 22.6508C35.969 21.6244 29.7116 21.3063 26.1136 31.6574" stroke="white" stroke-width="1.50185" stroke-linecap="round"/>
<path d="M33.2531 24.8156V28.4944" stroke="white" stroke-width="0.721336" stroke-linecap="round"/>
<path d="M42.8129 23.2345L49.3116 16.8081M44.7264 25.1841L53.9329 17.7468M36.7475 19.552L38.0111 16.4109M38.4083 15.4361L39.9246 11.4647M40.2135 10.7065L41.1161 8.3959M32.9566 18.7938L33.5343 11.1759M33.8592 6.91565L33.6426 10.165M22.1977 21.5738L17.9375 16.4109M17.2515 15.4361L16.0059 13.7573L14.7603 12.0785M29.3462 18.7938L28.9852 15.9055M28.8408 15.0029L28.0826 8.97356M27.9382 8.10707L27.7938 7.06006M14.4715 15.9055L20.9341 22.5486M51.2612 16.4109L47.9938 19.4797L44.7264 22.5486M45.954 27.1337L53.9329 22.8374M57.471 23.5595L51.5139 26.1228M50.9724 29.7693L58.9152 27.567M51.189 39.0841L59.5651 40.4921M46.6038 42.5139L57.11 48.0739M44.0405 49.9874L50.2503 57.0276M39.0581 50.4928L42.5241 57.0276M42.9573 58.0385L44.5098 60.999M41.7659 50.4928L46.6038 57.5331M37.5779 52.6952L40.5384 60.7102M36.4587 55.1502L38.5527 63.2014M33.6065 52.1536L34.6896 59.6993M34.834 60.7102L35.3756 63.8512M28.8408 52.1536L27.7938 59.6993M27.6494 60.8907L27.2522 63.8512M26.2774 52.984L23.4613 61.7572M19.1289 61.3601L24.5445 50.4928M17.8653 54.3559L21.9089 49.1931M17.1432 55.1502L14.5437 58.7245M7.61359 51.8768C8.19021 51.4803 13.2837 47.9005 14.5437 46.9186M16.8544 45.2578L17.5764 44.644M5.73441 48.1822L12.6302 44.9329M3.82092 43.1999L13.5689 41.2864M10.1752 39.3729L15.0131 38.8674M3.20715 31.069L6.5287 31.6106M8.65881 32.0438L15.0131 32.9464M6.5287 21.5738L15.2658 26.4117M12.9913 19.552L18.7318 24.4982M15.2658 30.3109L11.1861 29.3M8.65881 28.6501L4.03754 27.4226" stroke="white" stroke-width="0.2487" stroke-linecap="round" stroke-dasharray="0.43 0.43"/>
<path d="M39.9368 20.9884L46.9409 11.3487M41.6337 22.0715L49.8292 13.4427M44.0526 9.57959L38.4565 20.1941M36.9402 7.23285L36.1459 12.0346M36.0015 12.9372L34.9184 19.1832M22.95 8.17714L26.7247 19.1832M11.7398 14.7785L18.0579 20.9884M18.7078 21.566L20.2602 23.0463M18.0579 25.4291L13.2561 22.0715M12.4979 21.566L8.27381 18.7499M16.0722 28.6785L5.3133 24.3994M45.3884 26.2234L55.2809 19.3998M46.9409 29.2561L48.1684 28.6785M51.5983 27.2704C51.8871 27.2127 55.9789 25.6096 57.9886 24.8154M48.1684 33.9857L50.118 33.6969M47.7352 39.2569L59.2884 41.7841M44.7747 45.4306L50.118 50.4851M50.9484 51.3877L53.4396 53.6261M33.0771 53.6261L33.7269 63.9879M18.3467 45.7916L9.53744 53.6261M52.3926 30.9169L59.2884 29.5811M54.0533 37.1989L59.8299 37.4878M45.7495 44.0948L55.2809 51.2072M43.1139 47.3441L50.118 54.276M41.056 51.2072L46.3271 59.9443M38.4204 57.9947L39.9007 62.7965M30.9108 52.1098L30.4415 63.9879M25.7119 51.2072L22.3543 59.6916M21.9571 60.7025L21.3434 62.291M23.0041 49.6186L17.1914 58.3557M12.0286 56.5866L19.9201 47.7654M4.34443 44.8284L12.0286 42.6907M50.3708 42.0007L57.3749 44.4919M57.3749 34.419H60.1549M2.82214 33.5525H5.99927M7.84056 33.5525L14.1226 33.7691M6.97407 37.0545L9.42913 36.874M12.4979 38.0654L14.9891 37.921M3.07487 39.1846C3.33482 39.1846 4.67547 38.9921 5.3133 38.8958" stroke="white" stroke-width="0.7461" stroke-linecap="round"/>
<path d="M26.4698 13.118L27.8779 19.1473" stroke="white" stroke-width="0.2487" stroke-linecap="round" stroke-dasharray="0.43 0.43"/>
<path d="M18.6 9.86786L24.3611 20.2434M17.2642 13.1172L22.8963 21.0961" stroke="white" stroke-width="0.2487" stroke-linecap="round" stroke-dasharray="0.43 0.43"/>
<line x1="30.826" y1="6.92995" x2="30.826" y2="18.5919" stroke="white" stroke-width="0.62175" stroke-linecap="round"/>
<path d="M58.0487 32.8579L60.474 32.4941" stroke="white" stroke-width="0.242534" stroke-linecap="round" stroke-dasharray="0.49 0.49"/>
</svg>
