<svg width="231" height="507" viewBox="0 0 231 507" fill="none" xmlns="http://www.w3.org/2000/svg">
<path d="M113.145 0.613223C113.727 9.11301 114.383 17.6128 114.892 26.1852C115.693 39.3345 116.421 52.4837 117.222 65.7056C117.659 73.3336 118.023 80.889 118.387 88.517C118.97 99.9227 119.479 111.401 120.062 122.807C120.207 125.931 120.353 129.054 120.499 132.178C120.499 132.759 120.572 133.341 120.572 134.067C122.756 132.905 124.503 133.413 126.178 135.302C126.396 130.798 128.435 127.965 132.585 127.166C136.59 126.439 139.794 127.892 141.833 131.742C144.09 128.546 147.293 128.183 150.788 128.546C150.06 125.858 150.643 124.55 153.045 123.17C155.958 121.499 159.963 121.862 162.511 124.042C162.875 124.405 163.312 124.768 163.822 125.204C164.258 123.461 164.914 122.08 166.88 121.862C168.554 121.717 170.011 122.153 171.03 123.824C172.122 120.191 174.743 118.884 177.947 118.811C181.879 118.738 184.573 120.991 186.029 124.841C187.704 121.426 190.616 122.226 193.529 122.371C193.092 121.717 192.728 121.136 192.291 120.627C191.781 119.973 191.708 119.32 192.145 118.738C192.655 118.085 193.165 117.213 193.893 116.85C196.951 115.179 199.863 115.179 202.776 117.213C205.47 119.102 206.78 122.298 206.052 125.422C205.033 129.999 200.81 132.759 196.368 131.67C196.004 131.597 195.495 131.524 195.203 131.307C193.674 129.926 191.927 129.926 190.034 130.289C189.67 130.362 189.306 130.289 189.014 130.289C187.777 130.217 186.684 129.854 186.248 128.401C186.102 128.836 185.956 129.345 185.738 129.781C184.282 133.994 179.767 136.247 175.617 134.866C174.234 134.43 173.287 133.486 172.413 132.106C171.612 133.922 170.812 135.447 168.627 135.302C167.098 135.229 166.297 134.43 165.278 132.178C165.059 132.687 164.841 133.05 164.695 133.486C162.948 137.482 158.652 139.298 154.502 137.917C153.045 137.409 152.39 136.319 152.317 134.648C149.186 137.046 145.983 137.627 142.342 136.537C141.541 139.443 140.012 141.84 137.027 142.857C134.187 143.875 131.42 143.366 129.018 141.405C129.163 146.635 125.668 147.798 122.829 145.328C122.392 146.49 121.882 147.652 121.372 148.887C121.227 149.251 121.154 149.686 121.154 150.05C121.154 150.776 121.154 151.575 121.227 152.302C121.809 156.37 120.936 160.293 119.479 164.071C116.931 170.9 113.145 177.002 108.63 182.668C105.354 186.809 101.859 190.805 98.2184 194.655C94.9419 198.07 92.1022 201.847 89.6266 205.843C83.2192 216.232 78.9233 227.492 76.3749 239.406C75.3556 244.201 74.7003 249.141 73.9722 254.009C73.7537 255.607 73.8993 257.278 73.6809 258.876C73.244 262.218 71.8606 265.196 70.1859 268.102C67.3463 273.042 63.5601 277.256 59.5555 281.179C55.0412 285.538 50.1628 289.461 45.066 293.166C44.1922 293.747 43.3913 294.473 42.6632 295.2C35.382 301.956 27.664 308.058 19.1451 313.144C15.5773 315.251 11.8639 317.067 8.0777 318.592C6.62147 319.174 5.23803 319.9 4.00023 320.844C2.25275 322.152 2.10716 323.678 3.34495 325.421C4.00026 326.293 4.72835 327.165 5.60209 327.819C9.53392 331.015 14.0482 333.122 18.9266 334.575C21.6206 335.374 24.3875 335.083 27.0815 334.938C35.3092 334.357 43.3185 332.831 51.1821 330.361C57.1527 328.472 62.3951 325.349 67.2007 321.353C73.0256 316.413 78.4137 311.037 83.5833 305.443C87.4423 301.23 92.3207 299.268 97.8543 298.396C105.427 297.234 112.417 299.123 119.115 302.465C121.081 303.482 122.974 304.644 124.867 305.806C125.304 306.097 125.741 306.315 126.469 306.751C126.396 305.734 126.396 304.935 126.324 304.135C125.668 297.597 125.086 291.059 124.358 284.521C123.702 278.636 122.901 272.752 122.101 266.867C121.955 265.923 121.664 264.978 121.227 264.034C116.931 254.009 113.218 243.838 110.815 233.231C109.868 229.018 109.213 224.804 108.922 220.518C108.485 214.198 109.868 208.168 111.907 202.211C114.601 194.074 118.096 186.301 121.955 178.673C125.741 171.263 129.746 163.998 133.678 156.661C133.896 156.225 134.187 155.789 134.551 155.28C134.915 155.426 135.207 155.571 135.498 155.716C135.716 155.861 136.008 156.007 136.372 156.297C136.008 156.951 135.716 157.532 135.352 158.114C128.654 169.955 122.319 182.015 117.149 194.583C114.819 200.249 112.708 205.916 111.616 212.018C110.888 216.159 111.033 220.373 111.543 224.514C113.145 236.864 117.077 248.633 121.955 260.038C123.63 263.961 124.503 267.957 125.013 272.098C125.887 279.871 126.906 287.644 127.707 295.49C128.362 301.811 128.799 308.204 129.236 314.597C129.891 324.114 130.183 333.63 129.891 343.147C129.382 359.711 125.96 375.621 118.678 390.586C118.46 391.095 118.169 391.603 117.878 392.112C116.276 395.381 114.237 398.214 111.47 400.684C106.373 405.261 101.568 410.201 97.199 415.504C95.5972 417.393 94.0681 419.427 92.6119 421.462C91.01 423.714 89.9179 426.184 89.4082 428.944C88.7529 432.649 87.8063 436.282 87.151 440.059C86.8598 442.021 86.8598 444.128 86.9326 446.089C87.0054 447.106 87.5151 448.196 88.0976 449.14C88.7529 450.23 89.3354 450.303 90.5004 449.722C91.811 449.068 93.0488 448.341 94.2138 447.397C97.4175 444.782 100.621 442.166 103.679 439.406C114.819 429.162 125.231 418.12 135.498 407.077C137.974 404.389 140.522 401.701 142.925 398.941C143.944 397.778 144.818 396.471 145.692 395.163C146.492 393.928 147.148 392.62 147.949 391.458C150.06 388.334 151.444 384.92 152.609 381.36C159.016 361.745 165.423 342.203 171.831 322.588C172.923 319.246 174.306 315.904 175.326 312.563C175.908 310.674 176.127 308.712 176.345 306.751C176.709 303.046 176.709 299.341 175.763 295.563C176.418 295.345 177 295.2 177.801 294.909C177.947 295.563 178.165 296.072 178.238 296.653C179.258 301.883 178.821 307.114 177.729 312.199C177.219 314.597 176.054 316.776 175.326 319.101C169.282 337.553 163.239 356.079 157.123 374.531C156.832 375.476 156.54 376.42 156.176 377.364C152.609 388.044 152.609 388.044 146.711 397.633C146.42 398.142 146.056 398.65 145.692 399.013C132.731 413.18 119.698 427.273 105.645 440.35C102.514 443.256 99.2378 445.944 95.9613 448.632C94.5778 449.794 92.976 450.739 91.4469 451.538C89.2626 452.7 87.5151 452.192 86.1317 450.157C85.4764 449.14 85.1123 447.978 84.7483 446.816C84.5298 446.017 84.457 445.145 84.3114 444.128C84.0202 444.418 83.8745 444.491 83.7289 444.709C78.5593 451.538 74.409 458.875 72.2975 467.23C70.3316 475.148 70.7684 482.922 74.6274 490.259C74.9187 490.84 75.2827 491.349 75.7196 492.075C76.9574 491.058 78.0496 490.259 78.9961 489.242C81.9086 486.118 84.8211 483.067 87.5151 479.798C93.2672 472.751 98.8009 465.486 104.553 458.367C112.417 448.632 120.936 439.478 130.037 430.906C130.984 429.961 131.857 428.944 132.731 427.927C138.702 420.88 144.235 413.616 149.041 405.77C152.754 399.667 155.74 393.129 158.652 386.591C168.336 364.433 177.947 342.276 187.631 320.118C187.922 319.464 188.141 318.81 188.432 318.157C189.961 314.597 190.252 311.037 189.451 307.259C188.796 304.353 188.359 301.448 187.849 298.542C187.777 298.033 187.704 297.525 187.631 296.943C188.286 296.798 188.796 296.653 189.524 296.507C189.67 296.871 189.815 297.234 189.888 297.597C190.543 301.448 191.272 305.225 191.854 309.076C192.291 311.764 192.072 314.451 191.053 316.994C189.306 321.426 187.558 325.857 185.665 330.216C176.855 350.993 167.826 371.698 158.506 392.33C152.026 406.641 143.143 419.355 132.804 431.196C131.348 432.867 129.6 434.393 127.925 435.991C117.95 445.653 108.922 456.115 100.403 467.012C95.9612 472.606 91.5197 478.199 87.0782 483.793C86.787 484.229 86.4229 484.665 86.2773 485.101C85.1123 489.46 84.7482 493.819 86.0589 498.178C86.7142 500.43 87.8063 502.101 89.5538 503.626C89.845 503.336 90.2091 503.045 90.5004 502.682C92.976 499.631 95.5972 496.652 97.9271 493.456C99.7474 490.986 101.422 488.37 102.951 485.755C108.339 476.456 113.873 467.23 120.499 458.73C127.27 450.012 133.969 441.222 140.74 432.504C142.269 430.47 143.798 428.436 145.473 426.474C148.167 423.278 150.351 419.863 152.317 416.158C156.468 408.312 161.055 400.612 164.768 392.62C171.758 377.437 179.549 362.617 187.194 347.724C187.631 346.852 188.213 346.053 188.869 345.254C192.072 341.404 195.058 337.408 197.315 332.904C198.553 330.361 199.426 327.819 199.426 324.913C199.281 318.156 199.281 311.473 199.208 304.717C199.135 299.268 198.844 293.82 198.844 288.371C198.844 279.363 198.844 270.354 199.062 261.346C199.208 255.534 199.79 249.722 200.227 243.983C200.664 238.389 201.247 232.795 201.756 227.129C202.412 220.082 203.067 213.035 203.722 205.988C204.232 200.395 204.742 194.801 205.251 189.134C205.615 185.138 205.979 181.143 206.344 177.147C206.416 176.566 206.635 176.058 206.78 175.476C207.436 173.442 208.091 171.408 208.819 169.374C210.567 164.143 210.931 158.84 210.712 153.391C210.421 146.708 210.275 140.024 209.984 133.341C209.984 133.05 209.984 132.759 209.911 132.396C209.547 132.178 209.256 132.033 208.892 131.815C207.581 131.016 206.999 129.854 206.926 128.328C206.853 126.149 206.78 123.896 206.78 121.717C206.708 119.828 207.509 119.029 209.984 118.375C210.057 118.012 210.13 117.503 210.13 117.068C210.494 106.752 211.076 96.4356 212.096 86.1196C213.115 75.5857 213.989 65.0518 215.081 54.5178C216.027 44.7831 217.047 34.9756 218.066 25.2408C218.94 16.959 219.741 8.74977 220.615 0.467928C221.343 0.467928 221.998 0.467928 222.726 0.467928C222.435 3.51913 222.216 6.57034 221.852 9.69419C221.197 16.0872 220.542 22.4075 219.886 28.7279C219.231 35.0483 218.576 41.4413 217.921 47.7616C217.265 54.082 216.683 60.3297 216.027 66.65C215.299 73.9148 214.571 81.2522 214.062 88.517C213.479 96.4356 213.042 104.427 212.533 112.345C212.387 114.162 212.387 115.978 212.314 117.721C212.314 118.521 212.241 119.32 212.969 119.973C213.261 120.191 213.479 120.627 213.552 120.991C214.134 123.751 214.717 126.584 213.625 129.418C213.479 129.781 213.406 130.289 213.115 130.507C212.096 131.307 212.168 132.396 212.168 133.559C212.168 135.52 212.168 137.482 212.46 139.443C212.969 138.208 213.479 137.046 213.989 135.811C214.571 134.648 215.081 133.413 216.61 133.268C214.062 128.836 214.207 125.059 216.974 122.153C219.304 119.683 223.236 119.029 226.512 120.555C229.57 122.008 231.391 125.349 230.881 128.764C230.226 133.123 227.969 135.084 222.362 136.029C222.945 138.935 222.144 141.405 220.032 143.439C217.921 145.473 215.518 146.417 212.605 145.255C212.605 146.853 212.46 148.451 212.605 149.977C213.479 158.331 212.46 166.468 209.402 174.241C208.528 176.493 208.309 178.818 208.091 181.216C207.436 188.19 206.853 195.091 206.198 202.065C205.47 210.275 204.669 218.484 203.868 226.693C203.213 233.667 202.63 240.569 201.975 247.543C200.373 265.705 200.81 283.867 201.174 302.029C201.32 309.003 201.392 315.977 201.611 322.951C201.756 327.601 200.519 331.742 198.261 335.737C196.077 339.442 193.602 343.002 190.835 346.271C190.179 346.998 189.888 347.724 189.815 348.741C189.378 366.031 189.306 383.394 189.597 400.684C189.597 402.646 189.67 404.607 189.815 406.642C190.107 411 189.524 415.359 189.014 419.645C188.213 426.184 187.485 432.649 186.757 439.188C186.029 445.508 185.374 451.756 184.791 458.076C184.282 463.307 183.772 468.465 183.408 473.695C182.971 480.234 182.753 486.772 182.389 493.383C182.316 494.981 182.389 496.652 182.389 498.396C182.316 498.396 182.024 498.614 181.806 498.614C177.729 499.049 173.797 498.614 170.156 496.507C166.297 494.327 163.894 490.913 162.729 486.772C162.001 484.084 161.564 481.323 161.346 478.563C160.618 468.683 161.055 458.803 161.492 448.922C161.71 444.055 162.001 439.188 162.293 434.32C162.729 427.419 163.385 420.517 163.749 413.616C163.894 411.073 163.458 408.53 163.239 405.988C163.166 404.825 162.948 403.736 162.802 402.428C162.074 402.791 161.929 403.372 161.71 403.808C158.506 409.62 155.303 415.432 152.099 421.171C151.444 422.261 150.715 423.35 149.987 424.368C140.231 437.008 130.401 449.649 120.644 462.362C115.62 468.901 111.179 475.875 107.247 483.14C102.66 491.567 96.6166 498.977 90.5004 506.242C90.3548 506.387 90.2091 506.459 89.9907 506.677C83.5105 502.101 82.8551 495.49 83.5105 488.152C82.928 488.661 82.6367 488.879 82.2726 489.169C80.962 490.404 79.6514 491.639 78.268 492.802C77.7583 493.238 77.1031 493.601 76.5206 493.891C75.3556 494.4 74.5546 494.182 73.8993 493.02C71.5693 489.242 70.1131 485.174 69.4578 480.815C68.3657 473.259 69.8947 465.995 72.7344 459.021C75.4284 452.41 79.2146 446.452 83.8017 441.004C84.5298 440.132 84.8939 439.188 85.1123 438.098C85.9132 434.03 86.7142 429.889 87.8064 425.82C88.2432 424.077 89.117 422.333 90.2091 420.808C92.6847 417.393 95.1603 414.052 98 411C102.369 406.278 106.956 401.847 111.47 397.343C112.489 396.326 113.436 395.236 114.164 393.928C118.533 386.227 121.591 378.091 123.848 369.518C126.469 359.42 127.561 349.177 127.707 338.788C127.78 329.344 127.343 319.973 126.688 310.601C126.615 309.875 126.469 309.293 125.814 308.858C119.989 304.644 113.727 301.375 106.592 300.213C101.859 299.486 97.1991 299.849 92.6847 301.52C89.9179 302.537 87.5151 304.063 85.4764 306.242C80.8892 311.037 76.1565 315.614 71.3509 320.263C64.2882 327.092 55.8421 331.451 46.3038 333.703C38.5857 335.519 30.7949 336.827 22.8584 336.827C20.5285 336.827 18.3441 336.536 16.1598 335.665C12.0095 334.066 8.00487 332.25 4.50992 329.417C3.41775 328.545 2.32559 327.455 1.52466 326.293C-0.368436 323.678 -0.00438771 320.917 2.4712 318.883C3.63619 317.939 4.94679 317.067 6.33021 316.558C16.2326 312.781 24.8972 306.896 33.0521 300.285C36.0373 297.888 38.8042 295.2 41.7166 292.73C42.4448 292.149 43.1729 291.567 43.901 290.986C50.0172 286.555 55.9149 281.76 61.0845 276.239C64.2154 272.897 67.0551 269.265 69.2394 265.196C70.55 262.726 71.4966 260.111 71.7878 257.278C72.0791 254.154 72.2247 251.03 72.6616 247.906C74.9187 232.142 79.8699 217.321 88.2432 203.736C90.7188 199.741 93.5585 195.963 96.9078 192.621C102.223 187.245 107.101 181.433 111.252 175.04C114.164 170.609 116.64 165.959 118.242 160.874C119.334 157.314 119.552 154.772 118.97 150.994C118.242 151.285 117.441 151.503 116.494 151.866C118.533 152.956 118.46 154.699 118.242 156.515C118.096 157.605 117.878 158.695 117.659 159.784C117.513 160.656 116.931 160.947 116.13 160.947C115.475 160.947 114.674 160.874 114.091 160.584C111.761 159.276 109.795 156.733 110.96 153.246C111.179 152.665 111.761 152.229 112.125 151.793C107.247 149.396 105.208 145.11 107.174 140.678C108.994 136.465 113.436 134.794 118.314 136.537C118.314 135.012 118.387 133.559 118.314 132.106C118.023 125.495 117.732 118.884 117.368 112.273C116.858 101.23 116.276 90.1879 115.766 79.2181C115.402 71.8807 115.038 64.6159 114.601 57.2785C114.091 47.6163 113.509 38.0268 112.926 28.3647C112.562 22.1896 112.125 16.0872 111.761 9.91214C111.543 6.71563 111.324 3.51913 111.106 0.322632C111.761 0.613223 112.417 0.613223 113.145 0.613223ZM180.35 496.725C180.35 494.618 180.277 492.584 180.35 490.55C180.714 483.939 181.078 477.328 181.66 470.717C182.316 462.871 183.044 454.952 183.918 447.106C184.864 438.389 185.883 429.671 186.903 420.953C187.558 415.504 187.922 409.983 187.849 404.462C187.631 387.535 187.849 370.536 187.849 353.609C187.849 353.245 187.849 352.882 187.777 352.519C187.34 352.882 187.048 353.318 186.903 353.681C183.699 359.929 180.423 366.177 177.292 372.424C173.214 380.779 169.21 389.133 165.205 397.561C164.914 398.069 164.841 398.796 164.841 399.377C164.987 401.266 165.205 403.227 165.423 405.116C165.933 409.184 166.224 413.18 165.86 417.248C165.132 425.385 164.623 433.594 164.186 441.73C163.822 448.777 163.458 455.897 163.385 462.944C163.312 468.973 163.603 475.003 163.894 481.033C164.04 483.721 164.768 486.263 165.933 488.733C168.554 494.545 174.452 497.233 180.35 496.725ZM223.017 133.849C226.44 133.849 228.915 131.379 228.988 127.965C228.988 124.55 226.512 122.153 223.017 122.153C219.741 122.153 217.265 124.623 217.192 128.037C217.12 131.234 219.741 133.849 223.017 133.849ZM133.896 129.272C132.44 129.272 131.056 129.854 129.964 131.016C128.362 132.687 128.071 134.067 129.018 136.247C129.455 137.191 129.746 138.208 130.328 139.08C130.692 139.734 131.202 140.387 131.857 140.678C133.605 141.477 135.498 141.477 137.245 140.46C139.648 139.007 140.74 136.247 139.939 133.486C139.211 130.798 137.027 129.2 133.896 129.272ZM114.455 150.122C116.64 150.122 118.387 149.323 119.625 147.507C120.207 146.635 120.426 145.691 119.916 144.746C119.115 143.075 118.242 141.405 117.441 139.734C116.931 138.644 115.984 138.281 114.892 138.208C111.761 137.99 108.703 140.751 108.558 143.947C108.485 147.216 111.106 150.122 114.455 150.122ZM178.093 133.123C180.568 133.123 182.898 131.379 183.626 129.054C184.427 126.439 183.554 123.678 181.296 122.153C179.039 120.627 176.345 120.773 174.306 122.371C173.433 123.097 173.141 123.896 173.36 124.986C173.724 126.657 174.015 128.401 174.379 130.072C174.816 132.324 175.836 133.123 178.093 133.123ZM154.72 135.52C157.341 137.118 161.055 135.883 162.511 132.977C163.894 130.217 162.948 126.802 160.327 125.204C157.633 123.606 154.21 124.187 152.681 126.512C153.482 127.965 154.647 129.272 154.939 130.725C155.303 132.324 154.866 133.994 154.72 135.52ZM194.985 128.619C197.461 130.435 200.664 129.999 202.557 127.674C204.669 125.059 204.378 121.499 201.902 119.392C199.936 117.649 196.587 116.995 194.33 119.32C194.985 120.845 195.859 122.226 196.296 123.751C196.732 125.495 195.786 127.02 194.985 128.619ZM216.828 135.811C215.445 138.281 214.353 140.751 214.426 143.584C217.192 143.875 219.814 141.84 220.396 139.225C220.833 137.336 220.396 136.682 218.576 136.174C217.993 136.029 217.484 135.956 216.828 135.811ZM126.761 143.148C126.761 140.823 125.304 137.409 123.994 136.319C123.484 135.883 122.901 135.447 122.101 135.883C121.372 136.319 121.081 136.973 121.372 137.845C122.028 139.952 122.902 141.986 124.431 143.584C124.795 144.02 125.304 144.601 125.887 144.238C126.396 143.947 126.615 143.366 126.761 143.148ZM170.302 130.362C170.229 129.418 170.229 128.836 170.083 128.255C169.719 127.093 169.355 125.931 168.846 124.841C168.482 124.114 167.608 123.896 166.88 124.114C166.079 124.405 166.152 125.059 166.297 125.713C166.516 126.802 166.734 127.892 166.953 128.909C167.171 129.999 167.389 131.089 167.753 132.106C167.899 132.469 168.409 132.905 168.846 132.977C169.137 133.05 169.719 132.542 169.865 132.251C170.156 131.597 170.229 130.798 170.302 130.362ZM209.474 120.991C209.402 121.208 209.256 121.281 209.256 121.426C209.256 123.751 209.256 126.076 209.329 128.328C209.329 128.764 209.547 129.2 209.766 129.636C210.13 130.217 210.785 130.217 211.222 129.708C211.44 129.418 211.586 128.982 211.732 128.619C212.533 126.657 212.096 124.623 211.732 122.661C211.586 121.136 211.222 120.991 209.474 120.991ZM144.745 134.939C145.764 134.866 146.711 134.939 147.512 134.648C148.531 134.285 149.551 133.777 150.424 133.123C150.788 132.832 151.007 132.033 150.861 131.597C150.716 131.161 150.06 130.725 149.551 130.725C148.604 130.653 147.585 130.725 146.638 130.943C144.162 131.67 143.944 132.178 144.745 134.939ZM190.835 124.332C190.179 124.478 189.597 124.55 189.087 124.696C188.286 124.914 188.213 125.567 188.286 126.221C188.359 126.948 188.213 127.819 189.087 128.11C189.815 128.401 192.509 127.965 193.31 127.02C194.038 126.076 193.893 125.204 192.801 124.841C192.145 124.55 191.417 124.478 190.835 124.332ZM115.912 154.481C114.819 154.481 113.873 154.481 112.926 154.481C112.635 156.806 113.436 158.259 115.475 158.985C116.13 157.532 116.057 156.152 115.912 154.481Z" fill="black"/>
</svg>
