<svg width="224" height="507" viewBox="0 0 224 507" fill="none" xmlns="http://www.w3.org/2000/svg">
<path d="M2.93361 0.467885C3.80702 9.03786 4.75321 17.6805 5.62662 26.2504C6.28167 32.569 6.86395 38.8149 7.51901 45.1334C8.24684 52.8319 9.04747 60.5303 9.84809 68.1562C10.3576 73.3853 10.8671 78.6871 11.3038 83.9162C11.886 90.8158 12.3955 97.7153 12.8322 104.615C13.4873 115.146 13.6329 125.604 13.4873 136.135C13.4145 142.018 13.1234 147.828 12.8322 153.711C12.4683 160.465 13.7056 166.929 16.0347 173.175C16.9809 175.571 17.3448 178.113 17.5632 180.655C18.3638 189.298 19.1644 197.868 19.9651 206.51C20.6929 214.717 21.4207 222.924 22.2214 231.131C22.8764 238.03 23.6043 244.857 24.1138 251.757C24.4777 256.986 24.696 262.215 24.696 267.444C24.7688 278.629 24.696 289.886 24.5505 301.071C24.4777 307.099 24.2593 313.127 24.1138 319.155C24.041 321.261 24.2593 323.367 24.1865 325.401C24.1865 327.434 24.696 329.322 25.4966 331.138C27.7529 336.149 30.9554 340.58 34.4491 344.792C35.2497 345.736 35.9048 346.753 36.487 347.77C42.892 360.334 49.5881 372.826 55.5564 385.608C61.088 397.519 67.4202 408.994 73.8252 420.469C74.2619 421.196 74.7714 421.922 75.2809 422.648C84.67 434.849 94.1319 446.978 103.594 459.179C109.198 466.442 114.148 474.068 118.515 482.057C122.663 489.61 127.904 496.292 133.435 502.828C133.581 502.973 133.654 503.264 133.872 503.7C134.673 502.828 135.255 502.32 135.692 501.666C137.22 499.56 137.948 497.236 138.166 494.694C138.457 491.571 138.239 488.448 137.438 485.398C137.293 484.817 137.002 484.163 136.638 483.727C130.378 475.811 124.192 467.967 117.86 460.124C109.853 450.246 101.192 441.023 92.094 432.235C89.1098 429.402 86.6352 426.062 84.015 422.866C75.2809 412.19 68.5848 400.352 63.126 387.787C53.4457 365.491 43.7654 343.267 34.0852 321.043C33.8668 320.462 33.6485 319.881 33.3573 319.3C31.6833 315.378 31.1738 311.384 32.0472 307.244C32.7023 303.976 33.2117 300.635 33.8668 297.294C33.9396 297.076 34.0124 296.858 34.1579 296.568C34.813 296.713 35.3953 296.858 36.1231 297.004C35.6864 299.691 35.1769 302.305 34.7402 304.92C34.4491 306.663 34.1579 308.479 33.8668 310.222C33.5757 311.892 33.7212 313.562 34.3035 315.233C35.2497 317.775 36.1231 320.389 37.2149 322.859C46.7496 345.446 56.5026 367.887 66.6196 390.256C73.0974 404.637 81.7587 417.419 92.0212 429.257C92.4579 429.766 92.8946 430.201 93.3313 430.637C105.341 441.894 116.04 454.241 126.23 467.168C130.742 472.906 135.255 478.571 139.913 484.163C141.66 486.269 143.625 488.158 145.59 490.046C146.245 490.699 147.119 491.28 147.992 492.007C148.429 491.28 148.72 490.772 149.011 490.191C152.796 482.856 153.305 475.23 151.413 467.314C149.302 458.816 145.154 451.336 139.84 444.436C139.767 444.291 139.549 444.218 139.331 444.073C139.185 445.09 139.112 445.961 138.894 446.833C138.603 448.503 137.875 449.883 136.638 451.045C135.473 452.062 134.163 452.28 132.78 451.626C131.616 451.118 130.451 450.537 129.432 449.738C125.866 446.905 122.299 444.146 118.951 441.095C107.888 430.928 97.5528 420.033 87.2902 409.067C84.3789 405.944 81.5403 402.821 78.7017 399.698C77.9011 398.826 77.1733 397.81 76.5182 396.793C75.4992 395.195 74.6258 393.452 73.5341 391.854C71.6417 389.022 70.3316 385.971 69.3126 382.703C63.4171 364.619 57.5216 346.462 51.5533 328.378C49.8065 323.149 47.9141 317.993 46.1673 312.764C45.7306 311.529 45.585 310.149 45.3667 308.842C44.8572 304.629 44.6388 300.417 45.5122 296.205C45.585 295.842 45.6578 295.551 45.8034 295.188C45.8034 295.115 45.9489 295.043 46.0945 294.825C46.604 294.97 47.1863 295.188 47.9141 295.333C46.8224 299.981 47.0407 304.557 47.623 309.06C47.8413 310.512 48.2052 311.892 48.642 313.272C52.2084 324.093 55.8476 334.842 59.414 345.664C63.5627 358.155 67.6386 370.72 71.7145 383.212C72.4423 385.463 73.5341 387.569 74.6986 389.675C77.5372 394.759 81.1036 399.335 85.1067 403.547C96.5338 415.676 107.815 427.877 120.043 439.134C123.1 441.967 126.302 444.509 129.505 447.123C130.597 447.995 131.98 448.648 133.217 449.375C134.09 449.883 134.745 449.593 135.4 448.939C136.201 448.067 136.565 446.978 136.711 445.743C137.074 443.129 136.711 440.514 136.201 437.972C135.473 434.123 134.745 430.347 133.654 426.57C133.144 424.754 132.198 423.011 131.179 421.413C128.34 416.911 124.774 412.989 121.062 409.212C117.641 405.653 114.075 402.24 110.508 398.826C109.344 397.664 108.325 396.43 107.524 395.05C103.012 387.206 99.8819 378.781 97.5528 370.066C94.787 359.535 93.6952 348.859 93.6952 337.965C93.6224 325.836 94.2047 313.78 95.442 301.797C96.5338 290.83 97.8439 279.864 99.0812 268.897C99.3724 266.137 100.1 263.595 101.192 261.053C105.413 251.249 108.907 241.226 111.091 230.84C111.964 226.773 112.474 222.706 112.619 218.566C112.765 212.684 111.309 207.164 109.344 201.717C105.705 191.331 100.974 181.454 95.8788 171.722C93.4041 167.001 90.7839 162.353 88.2364 157.632C87.9453 157.124 87.727 156.616 87.4358 156.035C88.0909 155.672 88.6003 155.381 89.1826 155.018C89.4738 155.381 89.6921 155.672 89.8377 155.962C97.1161 168.744 103.958 181.745 109.417 195.471C111.018 199.466 112.255 203.605 113.492 207.672C115.239 213.483 115.167 219.365 114.366 225.321C112.619 237.958 108.47 249.941 103.521 261.562C102.429 264.176 101.629 266.791 101.338 269.551C100.246 279.21 99.154 288.942 98.0623 298.601C97.8439 300.417 97.6983 302.305 97.5528 304.121C97.48 304.775 97.48 305.428 97.4072 306.372C98.2078 305.864 98.7173 305.574 99.2268 305.21C104.467 301.797 109.999 299.182 116.185 298.093C123.173 296.858 129.723 297.802 135.91 301.361C136.929 301.942 137.875 302.668 138.676 303.467C142.533 307.317 146.318 311.311 150.248 315.088C152.723 317.484 155.416 319.736 158.109 321.987C162.331 325.546 167.134 328.088 172.447 329.758C181.764 332.663 191.299 334.479 201.052 334.479C203.09 334.479 204.982 334.116 206.874 333.462C210.732 332.082 214.371 330.339 217.646 327.797C218.738 326.926 219.757 325.909 220.558 324.82C221.795 323.149 221.504 321.697 219.903 320.389C218.884 319.59 217.792 318.864 216.627 318.428C205.71 314.216 196.248 307.607 187.295 300.126C185.039 298.238 182.928 296.277 180.745 294.316C180.09 293.735 179.435 293.154 178.707 292.646C171.501 287.417 164.732 281.825 158.91 275.07C156.144 271.802 153.669 268.389 151.922 264.467C150.612 261.562 150.03 258.584 149.812 255.388C149.521 250.958 148.865 246.528 148.065 242.098C145.663 229.17 141.223 217.041 134.454 205.784C131.834 201.427 128.85 197.432 125.283 193.801C119.315 187.773 113.929 181.164 109.489 173.901C106.578 169.18 104.103 164.242 102.939 158.795C102.575 157.197 102.429 155.599 102.502 154.001C102.72 147.465 103.084 141.001 103.375 134.537C103.958 122.554 104.467 110.498 105.05 98.5142C105.413 90.3074 105.777 82.1731 106.214 73.9663C106.724 64.2343 107.306 54.5023 107.815 44.7703C108.179 38.6696 108.47 32.569 108.907 26.5409C109.489 17.8257 110.144 9.03786 110.727 0.322632C111.455 0.322632 112.11 0.322632 112.837 0.322632C112.546 4.38974 112.328 8.45684 112.037 12.524C111.6 18.7699 111.163 25.0158 110.799 31.3343C110.217 41.2116 109.635 51.0162 109.125 60.8935C108.689 68.7372 108.325 76.5809 107.961 84.352C107.451 95.246 106.869 106.14 106.36 117.034C105.996 125.459 105.559 133.883 105.195 142.308C105.05 146.085 104.977 149.861 104.758 153.638C104.613 156.253 105.05 158.722 105.85 161.191C107.524 166.348 110.072 170.996 112.983 175.499C117.132 181.817 121.935 187.555 127.249 192.857C130.306 195.907 132.926 199.32 135.182 202.952C142.097 213.846 146.682 225.684 149.521 238.248C150.758 243.841 151.922 249.433 152.068 255.098C152.141 260.981 154.615 265.701 157.891 270.277C162.258 276.378 167.789 281.389 173.539 286.109C173.83 286.327 174.049 286.545 174.34 286.763C180.89 291.266 186.422 297.004 192.609 301.87C199.378 307.171 206.438 311.892 214.371 315.378C215.9 316.032 217.428 316.54 218.811 317.339C219.975 317.993 221.067 318.792 222.013 319.663C223.615 321.261 223.979 323.222 222.887 325.255C222.305 326.417 221.504 327.579 220.485 328.451C215.827 332.591 210.368 335.351 204.327 336.585C201.561 337.166 198.504 336.948 195.593 336.73C187.514 336.149 179.58 334.624 171.865 332.155C165.46 330.121 159.929 326.781 154.834 322.496C149.084 317.63 143.771 312.328 138.749 306.808C134.964 302.668 130.233 300.925 124.92 300.199C119.606 299.473 114.511 300.49 109.562 302.451C105.486 304.048 101.701 306.227 98.2078 308.842C97.6256 309.277 97.1889 309.641 97.1161 310.512C96.3882 321.116 95.8787 331.719 96.1699 342.395C96.6066 355.831 98.8629 368.904 103.739 381.541C105.413 385.971 107.379 390.329 109.853 394.396C110.508 395.413 111.236 396.43 112.11 397.229C118.733 403.475 125.283 409.866 130.888 417.128C131.98 418.508 132.926 419.961 133.872 421.413C135.109 423.302 135.91 425.263 136.347 427.514C137.074 431.363 137.875 435.14 138.749 438.917C138.894 439.643 139.404 440.369 139.913 441.023C145.299 447.559 149.666 454.749 152.432 462.811C154.615 469.42 155.489 476.174 153.96 483.074C153.233 486.56 151.922 489.828 150.03 492.878C149.157 494.331 148.283 494.621 146.9 493.75C145.517 492.878 144.28 491.789 143.116 490.699C142.242 489.973 141.514 489.029 140.714 488.23C140.568 488.303 140.495 488.303 140.35 488.375C140.423 489.174 140.423 489.901 140.495 490.699C140.714 493.532 140.495 496.292 139.622 498.979C138.603 502.175 136.711 504.789 133.799 506.677C133.435 506.314 133.071 505.951 132.707 505.515C129.942 502.175 127.103 498.834 124.483 495.348C122.59 492.878 120.916 490.336 119.315 487.722C113.565 477.845 107.67 468.04 100.61 458.962C96.6066 453.805 92.6763 448.648 88.6731 443.492C83.651 437.028 78.5562 430.564 73.5341 424.101C72.879 423.302 72.2967 422.43 71.7873 421.486C68.512 415.676 65.3095 409.793 62.107 403.983C61.8159 403.475 61.5247 402.966 61.1608 402.24C61.0152 402.821 60.7969 403.111 60.7969 403.475C60.5057 405.799 60.1418 408.123 60.069 410.374C59.9963 413.424 60.2146 416.547 60.433 419.598C60.7969 425.263 61.3791 430.928 61.6703 436.592C62.107 447.051 62.5437 457.509 62.762 467.967C62.8348 472.543 62.4709 477.118 62.107 481.694C61.8886 484.526 61.1608 487.213 59.8507 489.683C57.0121 495.275 52.3539 498.107 46.2401 498.616C44.566 498.761 42.892 498.834 41.218 498.325C41.218 497.962 41.1452 497.672 41.1452 497.381C41.7275 489.029 40.8541 480.822 40.199 472.543C39.7623 466.95 39.2528 461.286 38.6706 455.693C37.9427 448.648 37.2149 441.604 36.4142 434.559C35.6864 428.168 34.9586 421.777 34.1579 415.385C33.5029 410.737 34.0124 406.089 34.0852 401.441C34.3035 385.027 34.3763 368.541 33.8668 352.127C33.794 350.53 34.1579 348.859 33.6484 347.479C33.2117 346.099 31.8289 345.155 30.9554 343.921C28.9175 340.943 26.8795 337.965 24.9872 334.915C23.022 331.647 21.9302 328.015 22.003 324.166C22.1486 316.831 22.2941 309.568 22.3669 302.233C22.5125 292.355 22.6581 282.478 22.6581 272.601C22.6581 267.517 22.5125 262.506 22.2942 257.422C22.003 252.12 21.4935 246.746 21.0568 241.444C20.5473 235.779 20.0378 230.114 19.4556 224.449C18.8005 217.259 18.1455 210.142 17.4904 202.952C16.8354 196.052 16.2531 189.225 15.598 182.326C15.3069 179.348 15.0158 176.37 13.8512 173.465C11.3038 166.856 10.2848 160.029 10.7215 152.984C10.8671 150.442 11.0854 147.9 11.0854 145.359C11.1582 135.627 11.231 125.967 11.1582 116.235C11.0854 110.352 10.7215 104.542 10.2848 98.6595C9.84809 92.4135 9.26582 86.1676 8.68355 79.9217C8.17406 74.4747 7.66457 69.0277 7.15509 63.6533C6.50003 56.9716 5.84497 50.3626 5.18991 43.7535C4.60764 37.5802 3.95259 31.4069 3.29753 25.2337C2.64248 18.9151 1.98742 12.6692 1.33237 6.35066C1.11402 4.46236 0.968444 2.57407 0.822876 0.613139C1.55072 0.467885 2.27856 0.467885 2.93361 0.467885ZM43.5471 496.437C48.7147 497.018 54.6102 494.621 57.4488 489.465C58.5406 487.431 59.2684 485.325 59.6323 483.074C60.5785 477.118 60.6513 471.163 60.5057 465.207C60.2146 454.677 59.7051 444.218 59.1956 433.687C58.9045 428.095 58.395 422.575 57.9583 416.983C57.8127 414.95 57.6672 412.916 57.8127 410.955C58.1039 407.106 58.6134 403.329 58.9773 399.553C59.0501 398.899 58.9773 398.173 58.6861 397.592C57.2305 394.324 55.7748 391.128 54.2463 387.932C48.4964 376.385 42.6737 364.91 36.8509 353.362C36.7054 353.144 36.5598 352.926 36.1959 352.345C36.1231 353.072 36.0503 353.435 36.0503 353.798C36.1231 366.144 36.2687 378.564 36.2687 390.91C36.2687 396.866 36.0503 402.894 35.9048 408.849C35.9048 410.011 35.7592 411.173 35.9048 412.335C36.3415 416.475 36.9237 420.615 37.4332 424.754C38.1611 431.363 38.9617 437.9 39.6167 444.509C40.2718 450.827 40.9268 457.073 41.5091 463.392C42.1642 470.654 42.6737 477.845 43.1832 485.107C43.4015 488.739 43.4015 492.515 43.5471 496.437Z" fill="black"/>
</svg>
