<svg width="220" height="84" viewBox="0 0 220 84" fill="none" xmlns="http://www.w3.org/2000/svg">
<g filter="url(#filter0_d_6_9282)">
<path d="M86.8311 34.1024C87.5777 34.1024 88.2711 34.2024 88.9111 34.4024C89.5644 34.6024 90.1844 34.9024 90.7711 35.3024H90.7911L90.7511 34.2224H91.8311L91.5911 38.8424H90.8711C90.8044 37.589 90.4177 36.6224 89.7111 35.9424C89.0044 35.2624 88.0711 34.9224 86.9111 34.9224C86.2044 34.9224 85.5311 35.0757 84.8911 35.3824C84.2644 35.6757 83.6977 36.1024 83.1911 36.6624C82.6977 37.2224 82.2977 37.8957 81.9911 38.6824C81.6977 39.469 81.5244 40.3557 81.4711 41.3424C81.4044 42.5957 81.5844 43.7024 82.0111 44.6624C82.4511 45.6224 83.0577 46.369 83.8311 46.9024C84.6177 47.4357 85.5044 47.7024 86.4911 47.7024C87.3577 47.7024 88.2177 47.5157 89.0711 47.1424C89.9244 46.7557 90.6377 46.1957 91.2111 45.4624L91.7111 45.8824C91.0977 46.6557 90.4444 47.249 89.7511 47.6624C89.0577 48.0757 88.3777 48.3557 87.7111 48.5024C87.0577 48.6624 86.4577 48.7424 85.9111 48.7424C84.9111 48.7424 84.0111 48.5624 83.2111 48.2024C82.4111 47.8424 81.7311 47.3424 81.1711 46.7024C80.6111 46.049 80.1911 45.2957 79.9111 44.4424C79.6444 43.5757 79.5377 42.6424 79.5911 41.6424C79.6444 40.6957 79.8311 39.7757 80.1511 38.8824C80.4711 37.989 80.9311 37.1824 81.5311 36.4624C82.1311 35.7424 82.8711 35.169 83.7511 34.7424C84.6444 34.3157 85.6711 34.1024 86.8311 34.1024ZM96.322 48.4224C96.3087 48.329 96.302 48.249 96.302 48.1824C96.302 48.1024 96.302 48.009 96.302 47.9024C96.302 47.6757 96.3087 47.409 96.322 47.1024C96.3353 46.7824 96.362 46.3624 96.402 45.8424C96.4553 45.3224 96.5287 44.6424 96.622 43.8024C96.7153 42.9357 96.7887 42.2824 96.842 41.8424C96.8953 41.4024 96.9353 41.0824 96.962 40.8824C96.9887 40.669 97.002 40.4957 97.002 40.3624C97.0153 40.0957 96.9953 39.8357 96.942 39.5824C96.902 39.329 96.742 39.2024 96.462 39.2024C96.2487 39.2024 96.002 39.349 95.722 39.6424C95.442 39.9357 95.202 40.4357 95.002 41.1424L94.442 41.0224C94.482 40.7824 94.562 40.509 94.682 40.2024C94.8153 39.8824 94.9887 39.569 95.202 39.2624C95.4153 38.9557 95.6753 38.7024 95.982 38.5024C96.2887 38.3024 96.642 38.2024 97.042 38.2024C97.642 38.2024 98.042 38.409 98.242 38.8224C98.442 39.2357 98.5287 39.789 98.502 40.4824C98.4887 40.7757 98.4487 41.1024 98.382 41.4624C98.3287 41.809 98.2687 42.1757 98.202 42.5624H98.262C98.6487 41.4024 99.0487 40.509 99.462 39.8824C99.8887 39.2557 100.315 38.8224 100.742 38.5824C101.182 38.329 101.615 38.2024 102.042 38.2024C102.442 38.2024 102.775 38.309 103.042 38.5224C103.309 38.7224 103.442 39.0024 103.442 39.3624C103.442 39.6024 103.355 39.8224 103.182 40.0224C103.022 40.2224 102.802 40.3224 102.522 40.3224C102.282 40.3224 102.075 40.249 101.902 40.1024C101.729 39.9557 101.629 39.749 101.602 39.4824C101.229 39.4024 100.862 39.5224 100.502 39.8424C100.155 40.1624 99.822 40.6224 99.502 41.2224C99.1953 41.809 98.922 42.469 98.682 43.2024C98.4553 43.9357 98.2753 44.6824 98.142 45.4424C98.0087 46.2024 97.942 46.909 97.942 47.5624C97.942 47.7624 97.942 47.9157 97.942 48.0224C97.9553 48.1157 97.9687 48.249 97.982 48.4224H96.322ZM106.937 53.8424C106.484 53.8157 106.117 53.6824 105.837 53.4424C105.557 53.2157 105.417 52.929 105.417 52.5824C105.417 52.2757 105.511 52.0424 105.697 51.8824C105.884 51.7357 106.064 51.6624 106.237 51.6624C106.837 51.6624 107.124 52.009 107.097 52.7024C107.177 52.7424 107.251 52.7757 107.317 52.8024C107.384 52.829 107.457 52.8424 107.537 52.8424C107.831 52.8557 108.131 52.749 108.437 52.5224C108.757 52.2957 109.057 52.009 109.337 51.6624C109.631 51.329 109.884 50.9957 110.097 50.6624C110.324 50.3424 110.491 50.0957 110.597 49.9224C110.477 49.149 110.337 48.3557 110.177 47.5424C110.017 46.7157 109.831 45.8957 109.617 45.0824C109.417 44.2557 109.191 43.4624 108.937 42.7024C108.697 41.929 108.437 41.2024 108.157 40.5224C108.064 40.2957 107.944 40.0624 107.797 39.8224C107.651 39.5824 107.444 39.4757 107.177 39.5024C106.924 39.529 106.731 39.729 106.597 40.1024C106.477 40.4757 106.444 40.969 106.497 41.5824L105.857 41.6624C105.817 41.3024 105.811 40.9224 105.837 40.5224C105.877 40.1224 105.964 39.749 106.097 39.4024C106.231 39.0424 106.424 38.7557 106.677 38.5424C106.931 38.3157 107.264 38.2024 107.677 38.2024C108.131 38.2024 108.497 38.3224 108.777 38.5624C109.071 38.8024 109.304 39.0957 109.477 39.4424C109.664 39.789 109.817 40.129 109.937 40.4624C110.191 41.1424 110.437 41.9224 110.677 42.8024C110.917 43.6824 111.124 44.5824 111.297 45.5024C111.484 46.409 111.624 47.2557 111.717 48.0424H111.757C112.131 47.389 112.491 46.669 112.837 45.8824C113.184 45.0957 113.471 44.2957 113.697 43.4824C113.924 42.6557 114.037 41.8824 114.037 41.1624C114.037 40.829 114.004 40.5357 113.937 40.2824C113.884 40.029 113.817 39.849 113.737 39.7424C113.684 39.7824 113.611 39.8157 113.517 39.8424C113.437 39.8557 113.344 39.8624 113.237 39.8624C112.997 39.8624 112.804 39.789 112.657 39.6424C112.511 39.4824 112.437 39.2957 112.437 39.0824C112.437 38.789 112.531 38.569 112.717 38.4224C112.917 38.2757 113.137 38.2024 113.377 38.2024C113.791 38.2024 114.111 38.329 114.337 38.5824C114.564 38.8357 114.724 39.1557 114.817 39.5424C114.924 39.929 114.977 40.3357 114.977 40.7624C114.977 41.6424 114.851 42.5424 114.597 43.4624C114.344 44.3824 114.011 45.289 113.597 46.1824C113.197 47.0757 112.771 47.9357 112.317 48.7624C111.651 49.9624 111.011 50.9424 110.397 51.7024C109.797 52.4624 109.211 53.009 108.637 53.3424C108.064 53.689 107.497 53.8557 106.937 53.8424ZM121.731 48.6424C121.198 48.6424 120.684 48.5624 120.191 48.4024C119.698 48.229 119.298 47.9824 118.991 47.6624C118.684 47.3424 118.531 46.9557 118.531 46.5024C118.531 46.209 118.611 45.9757 118.771 45.8024C118.944 45.6157 119.151 45.5224 119.391 45.5224C119.658 45.5224 119.858 45.609 119.991 45.7824C120.138 45.9557 120.211 46.149 120.211 46.3624C120.211 46.4557 120.198 46.5557 120.171 46.6624C120.144 46.769 120.098 46.8757 120.031 46.9824C120.138 47.2757 120.351 47.5024 120.671 47.6624C120.991 47.8224 121.331 47.9024 121.691 47.9024C122.411 47.9024 122.951 47.7357 123.311 47.4024C123.671 47.069 123.851 46.6024 123.851 46.0024C123.851 45.6424 123.724 45.3224 123.471 45.0424C123.218 44.7624 122.898 44.5024 122.511 44.2624C122.124 44.009 121.724 43.7624 121.311 43.5224C120.924 43.2824 120.551 43.0357 120.191 42.7824C119.844 42.529 119.558 42.249 119.331 41.9424C119.118 41.6357 119.011 41.289 119.011 40.9024C119.011 40.409 119.158 39.9624 119.451 39.5624C119.744 39.149 120.151 38.8224 120.671 38.5824C121.191 38.329 121.791 38.2024 122.471 38.2024C122.978 38.2024 123.451 38.2824 123.891 38.4424C124.344 38.6024 124.711 38.829 124.991 39.1224C125.284 39.4157 125.431 39.7624 125.431 40.1624C125.431 40.4424 125.351 40.669 125.191 40.8424C125.031 41.0024 124.831 41.0824 124.591 41.0824C124.351 41.0824 124.158 41.0024 124.011 40.8424C123.864 40.6824 123.791 40.4957 123.791 40.2824C123.791 40.1757 123.804 40.0757 123.831 39.9824C123.858 39.8757 123.904 39.769 123.971 39.6624C123.904 39.4357 123.738 39.249 123.471 39.1024C123.218 38.9424 122.864 38.8624 122.411 38.8624C122.118 38.8624 121.831 38.929 121.551 39.0624C121.271 39.1957 121.038 39.3824 120.851 39.6224C120.664 39.849 120.571 40.1224 120.571 40.4424C120.571 40.6957 120.644 40.929 120.791 41.1424C120.951 41.3557 121.158 41.5557 121.411 41.7424C121.664 41.929 121.938 42.1157 122.231 42.3024C122.711 42.5824 123.204 42.8824 123.711 43.2024C124.218 43.509 124.638 43.8624 124.971 44.2624C125.318 44.6624 125.491 45.149 125.491 45.7224C125.491 46.2824 125.331 46.7824 125.011 47.2224C124.704 47.6624 124.264 48.009 123.691 48.2624C123.131 48.5157 122.478 48.6424 121.731 48.6424ZM132.826 35.6024L132.466 38.4224H135.646L135.586 39.1824L132.386 39.2224C132.332 39.7824 132.266 40.3624 132.186 40.9624C132.119 41.549 132.059 42.1357 132.006 42.7224C131.952 43.309 131.906 43.8757 131.866 44.4224C131.826 44.9557 131.806 45.4424 131.806 45.8824C131.806 46.1357 131.819 46.4024 131.846 46.6824C131.886 46.949 131.972 47.1757 132.106 47.3624C132.239 47.5357 132.452 47.6224 132.746 47.6224C132.879 47.6224 133.039 47.5957 133.226 47.5424C133.426 47.489 133.646 47.3624 133.886 47.1624C134.126 46.9624 134.372 46.649 134.626 46.2224L135.146 46.5624C134.759 47.2424 134.339 47.7624 133.886 48.1224C133.446 48.469 132.906 48.6424 132.266 48.6424C131.746 48.6424 131.332 48.5357 131.026 48.3224C130.732 48.0957 130.519 47.8024 130.386 47.4424C130.252 47.0824 130.186 46.6957 130.186 46.2824C130.186 45.7757 130.206 45.1624 130.246 44.4424C130.286 43.709 130.346 42.9024 130.426 42.0224C130.506 41.129 130.599 40.2024 130.706 39.2424L128.926 39.2624L128.986 38.4224C129.906 38.4224 130.586 38.1757 131.026 37.6824C131.466 37.189 131.812 36.4957 132.066 35.6024H132.826ZM144.351 38.2024C144.751 38.2024 145.191 38.2357 145.671 38.3024C146.151 38.3557 146.604 38.4357 147.031 38.5424C146.924 39.3424 146.817 40.1424 146.711 40.9424C146.617 41.729 146.524 42.4824 146.431 43.2024C146.351 43.909 146.284 44.549 146.231 45.1224C146.177 45.6824 146.151 46.1224 146.151 46.4424C146.151 46.709 146.171 46.9757 146.211 47.2424C146.251 47.509 146.417 47.6424 146.711 47.6424C146.937 47.6424 147.184 47.4957 147.451 47.2024C147.731 46.909 147.971 46.409 148.171 45.7024L148.731 45.8224C148.691 46.0624 148.604 46.3424 148.471 46.6624C148.351 46.969 148.184 47.2757 147.971 47.5824C147.757 47.889 147.497 48.1424 147.191 48.3424C146.884 48.5424 146.531 48.6424 146.131 48.6424C145.597 48.6424 145.217 48.4757 144.991 48.1424C144.764 47.809 144.651 47.3757 144.651 46.8424C144.651 46.4557 144.684 46.0357 144.751 45.5824C144.831 45.129 144.917 44.6557 145.011 44.1624H144.951C144.631 45.149 144.297 45.9424 143.951 46.5424C143.617 47.129 143.277 47.5757 142.931 47.8824C142.597 48.189 142.271 48.389 141.951 48.4824C141.631 48.589 141.331 48.6424 141.051 48.6424C140.331 48.6424 139.724 48.3757 139.231 47.8424C138.751 47.309 138.511 46.4157 138.511 45.1624C138.511 44.229 138.631 43.3424 138.871 42.5024C139.111 41.6624 139.471 40.9224 139.951 40.2824C140.444 39.629 141.057 39.1224 141.791 38.7624C142.524 38.389 143.377 38.2024 144.351 38.2024ZM143.731 38.9224C143.131 38.9224 142.604 39.089 142.151 39.4224C141.711 39.7557 141.344 40.209 141.051 40.7824C140.757 41.3424 140.537 41.9757 140.391 42.6824C140.257 43.3757 140.191 44.089 140.191 44.8224C140.191 45.6757 140.284 46.3824 140.471 46.9424C140.657 47.489 140.997 47.7624 141.491 47.7624C141.851 47.7624 142.211 47.5824 142.571 47.2224C142.944 46.8624 143.291 46.3824 143.611 45.7824C143.931 45.169 144.217 44.489 144.471 43.7424C144.724 42.9824 144.924 42.209 145.071 41.4224C145.217 40.6357 145.291 39.8824 145.291 39.1624C145.091 39.0824 144.857 39.0224 144.591 38.9824C144.324 38.9424 144.037 38.9224 143.731 38.9224ZM155.008 33.3224C154.968 33.6557 154.908 34.029 154.828 34.4424C154.761 34.8557 154.694 35.2624 154.628 35.6624C154.574 36.0624 154.528 36.4157 154.488 36.7224C154.408 37.2824 154.328 37.9224 154.248 38.6424C154.168 39.349 154.088 40.089 154.008 40.8624C153.928 41.6224 153.854 42.369 153.788 43.1024C153.734 43.8357 153.688 44.509 153.648 45.1224C153.608 45.7224 153.588 46.2157 153.588 46.6024C153.588 46.8557 153.614 47.0957 153.668 47.3224C153.721 47.5357 153.874 47.6424 154.128 47.6424C154.354 47.6424 154.601 47.5024 154.868 47.2224C155.148 46.929 155.388 46.4224 155.588 45.7024L156.148 45.8424C156.108 46.069 156.021 46.3424 155.888 46.6624C155.768 46.9824 155.601 47.2957 155.388 47.6024C155.174 47.8957 154.914 48.1424 154.608 48.3424C154.314 48.5424 153.968 48.6424 153.568 48.6424C153.021 48.6424 152.621 48.509 152.368 48.2424C152.114 47.9624 151.981 47.5557 151.968 47.0224C151.954 46.689 151.968 46.1957 152.008 45.5424C152.061 44.889 152.121 44.149 152.188 43.3224C152.268 42.4824 152.354 41.609 152.448 40.7024C152.541 39.7824 152.641 38.889 152.748 38.0224C152.854 37.1557 152.954 36.369 153.048 35.6624C153.114 35.3024 153.154 35.069 153.168 34.9624C153.194 34.8424 153.214 34.7157 153.228 34.5824C152.988 34.5957 152.748 34.609 152.508 34.6224C152.281 34.6357 152.048 34.649 151.808 34.6624L151.908 33.8624C152.494 33.8624 152.948 33.8357 153.268 33.7824C153.601 33.729 153.854 33.6624 154.028 33.5824C154.201 33.5024 154.341 33.4157 154.448 33.3224H155.008ZM167.032 48.6424C166.405 48.6424 165.979 48.4757 165.752 48.1424C165.525 47.809 165.412 47.3357 165.412 46.7224C165.412 46.349 165.439 45.909 165.492 45.4024C165.559 44.8824 165.625 44.3357 165.692 43.7624C165.772 43.189 165.839 42.609 165.892 42.0224C165.959 41.4357 165.992 40.8824 165.992 40.3624C165.992 40.2024 165.965 40.029 165.912 39.8424C165.859 39.6557 165.765 39.4957 165.632 39.3624C165.499 39.2157 165.299 39.1424 165.032 39.1424C164.672 39.1424 164.312 39.309 163.952 39.6424C163.592 39.9624 163.245 40.4024 162.912 40.9624C162.592 41.5224 162.299 42.1624 162.032 42.8824C161.779 43.589 161.579 44.329 161.432 45.1024C161.285 45.8624 161.212 46.6157 161.212 47.3624C161.212 47.5624 161.212 47.749 161.212 47.9224C161.225 48.0824 161.239 48.249 161.252 48.4224H159.612C159.599 48.329 159.592 48.249 159.592 48.1824C159.592 48.1024 159.592 48.009 159.592 47.9024C159.592 47.5424 159.612 46.989 159.652 46.2424C159.692 45.4957 159.745 44.649 159.812 43.7024C159.879 42.7424 159.952 41.7624 160.032 40.7624C160.125 39.7624 160.219 38.8157 160.312 37.9224C160.405 37.0157 160.499 36.2557 160.592 35.6424C160.645 35.2957 160.679 35.0757 160.692 34.9824C160.719 34.889 160.745 34.7557 160.772 34.5824L159.372 34.6624L159.452 33.8624C160.039 33.8624 160.492 33.8357 160.812 33.7824C161.145 33.729 161.399 33.6624 161.572 33.5824C161.745 33.5024 161.885 33.4157 161.992 33.3224H162.572C162.519 33.6557 162.459 34.029 162.392 34.4424C162.325 34.8557 162.259 35.2624 162.192 35.6624C162.125 36.0624 162.072 36.4157 162.032 36.7224C161.992 37.0557 161.939 37.489 161.872 38.0224C161.819 38.5424 161.759 39.0957 161.692 39.6824C161.639 40.2557 161.585 40.809 161.532 41.3424C161.492 41.8757 161.459 42.3157 161.432 42.6624H161.492C161.945 41.449 162.392 40.5224 162.832 39.8824C163.272 39.2424 163.705 38.8024 164.132 38.5624C164.572 38.3224 165.005 38.2024 165.432 38.2024C166.232 38.2024 166.799 38.4624 167.132 38.9824C167.465 39.489 167.632 40.0957 167.632 40.8024C167.632 41.5357 167.585 42.289 167.492 43.0624C167.399 43.8224 167.305 44.529 167.212 45.1824C167.119 45.8224 167.072 46.3357 167.072 46.7224C167.072 46.9624 167.099 47.1757 167.152 47.3624C167.219 47.549 167.372 47.6424 167.612 47.6424C167.839 47.6424 168.085 47.5024 168.352 47.2224C168.632 46.929 168.872 46.4224 169.072 45.7024L169.572 45.8424C169.532 46.069 169.452 46.3424 169.332 46.6624C169.212 46.9824 169.045 47.2957 168.832 47.6024C168.632 47.8957 168.379 48.1424 168.072 48.3424C167.779 48.5424 167.432 48.6424 167.032 48.6424ZM177.557 38.2024C178.277 38.2024 178.924 38.3757 179.497 38.7224C180.07 39.0557 180.524 39.549 180.857 40.2024C181.19 40.8557 181.357 41.649 181.357 42.5824C181.357 43.649 181.164 44.649 180.777 45.5824C180.39 46.5024 179.83 47.2424 179.097 47.8024C178.377 48.3624 177.497 48.6424 176.457 48.6424C175.577 48.6424 174.85 48.4424 174.277 48.0424C173.717 47.6424 173.297 47.1024 173.017 46.4224C172.75 45.7424 172.617 44.989 172.617 44.1624C172.617 43.0824 172.81 42.089 173.197 41.1824C173.597 40.2757 174.164 39.5557 174.897 39.0224C175.644 38.4757 176.53 38.2024 177.557 38.2024ZM177.257 38.9424C176.67 38.929 176.164 39.129 175.737 39.5424C175.31 39.9424 174.977 40.489 174.737 41.1824C174.51 41.8757 174.39 42.649 174.377 43.5024C174.364 43.9557 174.39 44.4357 174.457 44.9424C174.524 45.449 174.637 45.9224 174.797 46.3624C174.97 46.8024 175.204 47.1624 175.497 47.4424C175.804 47.7224 176.184 47.869 176.637 47.8824C177.17 47.8957 177.624 47.7557 177.997 47.4624C178.37 47.1557 178.67 46.7624 178.897 46.2824C179.124 45.8024 179.29 45.289 179.397 44.7424C179.517 44.1957 179.584 43.6824 179.597 43.2024C179.61 42.7357 179.584 42.2557 179.517 41.7624C179.464 41.269 179.35 40.809 179.177 40.3824C179.004 39.9557 178.764 39.6157 178.457 39.3624C178.15 39.0957 177.75 38.9557 177.257 38.9424ZM188.547 33.3224C188.507 33.6557 188.447 34.029 188.367 34.4424C188.3 34.8557 188.234 35.2624 188.167 35.6624C188.114 36.0624 188.067 36.4157 188.027 36.7224C187.947 37.2824 187.867 37.9224 187.787 38.6424C187.707 39.349 187.627 40.089 187.547 40.8624C187.467 41.6224 187.394 42.369 187.327 43.1024C187.274 43.8357 187.227 44.509 187.187 45.1224C187.147 45.7224 187.127 46.2157 187.127 46.6024C187.127 46.8557 187.154 47.0957 187.207 47.3224C187.26 47.5357 187.414 47.6424 187.667 47.6424C187.894 47.6424 188.14 47.5024 188.407 47.2224C188.687 46.929 188.927 46.4224 189.127 45.7024L189.687 45.8424C189.647 46.069 189.56 46.3424 189.427 46.6624C189.307 46.9824 189.14 47.2957 188.927 47.6024C188.714 47.8957 188.454 48.1424 188.147 48.3424C187.854 48.5424 187.507 48.6424 187.107 48.6424C186.56 48.6424 186.16 48.509 185.907 48.2424C185.654 47.9624 185.52 47.5557 185.507 47.0224C185.494 46.689 185.507 46.1957 185.547 45.5424C185.6 44.889 185.66 44.149 185.727 43.3224C185.807 42.4824 185.894 41.609 185.987 40.7024C186.08 39.7824 186.18 38.889 186.287 38.0224C186.394 37.1557 186.494 36.369 186.587 35.6624C186.654 35.3024 186.694 35.069 186.707 34.9624C186.734 34.8424 186.754 34.7157 186.767 34.5824C186.527 34.5957 186.287 34.609 186.047 34.6224C185.82 34.6357 185.587 34.649 185.347 34.6624L185.447 33.8624C186.034 33.8624 186.487 33.8357 186.807 33.7824C187.14 33.729 187.394 33.6624 187.567 33.5824C187.74 33.5024 187.88 33.4157 187.987 33.3224H188.547ZM194.591 38.2024C195.151 38.2024 195.571 38.3957 195.851 38.7824C196.131 39.1557 196.271 39.6557 196.271 40.2824C196.271 40.6824 196.231 41.1424 196.151 41.6624C196.084 42.169 195.998 42.7157 195.891 43.3024C195.784 43.889 195.691 44.4824 195.611 45.0824C195.544 45.669 195.511 46.2424 195.511 46.8024C195.511 47.069 195.558 47.2757 195.651 47.4224C195.758 47.569 195.918 47.6424 196.131 47.6424C196.358 47.6424 196.604 47.4957 196.871 47.2024C197.151 46.909 197.391 46.409 197.591 45.7024L198.151 45.8224C198.098 46.1024 198.004 46.409 197.871 46.7424C197.751 47.0624 197.591 47.369 197.391 47.6624C197.191 47.9424 196.944 48.1757 196.651 48.3624C196.371 48.549 196.044 48.6424 195.671 48.6424C195.058 48.6424 194.604 48.4824 194.311 48.1624C194.018 47.8424 193.871 47.3757 193.871 46.7624C193.871 46.1757 193.911 45.609 193.991 45.0624C194.071 44.5024 194.158 43.9557 194.251 43.4224C194.358 42.8757 194.451 42.329 194.531 41.7824C194.611 41.2357 194.651 40.6757 194.651 40.1024C194.651 39.929 194.611 39.7357 194.531 39.5224C194.464 39.309 194.318 39.2024 194.091 39.2024C193.878 39.2024 193.631 39.349 193.351 39.6424C193.071 39.9357 192.831 40.4357 192.631 41.1424L192.071 41.0224C192.111 40.7824 192.191 40.509 192.311 40.2024C192.431 39.8824 192.591 39.569 192.791 39.2624C193.004 38.9557 193.258 38.7024 193.551 38.5024C193.844 38.3024 194.191 38.2024 194.591 38.2024ZM195.731 33.8824C196.038 33.8824 196.291 33.989 196.491 34.2024C196.691 34.4024 196.791 34.6757 196.791 35.0224C196.791 35.3557 196.684 35.629 196.471 35.8424C196.258 36.0424 196.004 36.1424 195.711 36.1424C195.418 36.1424 195.164 36.0424 194.951 35.8424C194.751 35.629 194.651 35.3557 194.651 35.0224C194.651 34.6757 194.758 34.4024 194.971 34.2024C195.184 33.989 195.438 33.8824 195.731 33.8824ZM205.975 38.2024C206.549 38.2024 207.062 38.309 207.515 38.5224C207.969 38.7224 208.322 39.0024 208.575 39.3624C208.842 39.709 208.975 40.1024 208.975 40.5424C208.975 40.8357 208.902 41.0757 208.755 41.2624C208.609 41.4357 208.402 41.5224 208.135 41.5224C207.815 41.5357 207.589 41.4424 207.455 41.2424C207.335 41.0424 207.275 40.869 207.275 40.7224C207.275 40.6024 207.289 40.4757 207.315 40.3424C207.355 40.209 207.429 40.0824 207.535 39.9624C207.469 39.589 207.282 39.3224 206.975 39.1624C206.682 38.989 206.342 38.9024 205.955 38.9024C205.382 38.9024 204.902 39.0557 204.515 39.3624C204.129 39.669 203.822 40.069 203.595 40.5624C203.369 41.0557 203.202 41.589 203.095 42.1624C203.002 42.7224 202.955 43.269 202.955 43.8024C202.955 44.7357 203.055 45.489 203.255 46.0624C203.469 46.6224 203.762 47.029 204.135 47.2824C204.509 47.5357 204.929 47.6624 205.395 47.6624C205.742 47.6624 206.102 47.589 206.475 47.4424C206.849 47.2824 207.209 47.0224 207.555 46.6624C207.902 46.289 208.202 45.7824 208.455 45.1424L209.155 45.4824C208.822 46.2557 208.435 46.8757 207.995 47.3424C207.555 47.7957 207.082 48.129 206.575 48.3424C206.082 48.5424 205.575 48.6424 205.055 48.6424C203.882 48.6424 202.942 48.289 202.235 47.5824C201.542 46.8624 201.195 45.7557 201.195 44.2624C201.195 43.609 201.289 42.929 201.475 42.2224C201.662 41.5157 201.949 40.8624 202.335 40.2624C202.722 39.649 203.215 39.1557 203.815 38.7824C204.429 38.3957 205.149 38.2024 205.975 38.2024Z" fill="white"/>
</g>
<g filter="url(#filter1_d_6_9282)">
<path d="M44.7629 49.9784V53.6478M43.5968 52.2119H45.9691M50.0704 47.8247H51.6385M50.9147 46.5484V48.2235V49.5397M49.5879 31.9907V32.7485M39.9379 39.0901H40.8627" stroke="white" stroke-width="0.726747" stroke-linecap="round"/>
<path d="M41.8284 33.6614H44.372" stroke="white" stroke-width="0.726747" stroke-linecap="round"/>
<path d="M20.3421 36.8485C19.9307 36.5141 18.9007 36.1743 18.0725 37.4905C17.0373 39.1357 14.7279 44.7133 16.4002 46.5592C17.7381 48.0358 20.2757 44.6866 21.3773 42.8274C21.51 42.3458 21.4251 41.4791 20.0235 41.8643C18.2716 42.3458 21.4569 41.7439 21.5764 41.6637C21.6958 41.5834 21.2579 45.1948 22.2533 44.3522C23.0496 43.678 23.5407 42.279 23.6867 41.6637C23.6203 42.3191 23.6947 43.5737 24.5228 43.349C25.351 43.1243 25.9297 41.4363 26.1155 40.6204C26.1686 44.4191 26.0996 52.201 25.3988 52.9393C24.698 53.6777 23.9654 53.0597 23.6867 52.6584C23.3947 52.0833 23.2169 50.3391 24.8414 47.9636C26.4659 45.5881 28.5443 43.0949 29.3805 42.1452M31.1324 39.9382C30.721 39.9917 29.8264 40.4117 29.5398 41.6637C29.2531 42.9156 29.9247 43.0949 30.2963 43.028C30.8139 42.9076 31.8412 42.8354 31.8093 43.5095C31.7775 44.1836 30.4954 45.4757 29.8583 46.0375C29.4867 46.2248 28.831 46.3665 29.1814 45.4356C29.6194 44.2719 34.7956 43.028 36.1892 37.4905C35.3132 40.2057 33.8241 46.0134 34.8752 47.5222C35.2867 47.7095 36.6272 47.3376 38.6976 44.3522M41.6441 41.8643C41.4317 41.3159 40.7761 40.6043 39.8523 42.1452C38.9286 43.6861 38.9896 44.6866 39.1356 44.9942C39.202 45.2483 39.5656 45.5319 40.4894 44.6331C41.4131 43.7342 41.9095 42.4127 42.0422 41.8643C41.3123 43.4159 40.2107 46.3023 41.6441 45.4356C43.4358 44.3522 47.736 35.0026 47.537 33.1167C47.3379 31.2307 41.2061 44.6331 43.8738 45.4356C44.5772 45.4891 46.2628 45.0825 47.3777 43.028M48.174 39.9382C49.6871 39.4701 52.7928 37.5707 53.1113 33.7186C53.0184 33.4243 52.6893 33.1006 52.1159 34.16C51.3992 35.4842 48.8907 40.8611 48.5324 44.6331C48.9969 42.4662 50.1251 38.5659 50.9214 40.2994C51.1603 40.2994 50.364 43.3089 50.9214 43.8305C51.3673 44.2479 53.8678 41.8643 55.0623 40.6204C54.7438 40.1205 53.9077 39.5411 53.1113 41.2223C52.315 42.9035 53.2308 43.4476 53.7882 43.5095C54.2527 43.3089 55.2057 42.4502 55.3012 40.6204C55.2614 41.0217 55.357 41.7038 56.0578 41.2223C56.9337 40.6204 60.3978 37.6109 60.7163 33.5179C60.7163 33.2504 60.6287 32.8759 60.2783 33.5179C59.8404 34.3205 56.9337 39.6573 57.3319 43.1885C57.7301 46.7197 60.7561 42.4662 61.3932 40.6204C60.8623 41.7974 60.0235 44.0874 60.9154 43.8305C61.8073 43.5737 62.9328 41.1287 63.3841 39.9382C62.6408 41.3159 61.6162 43.983 63.4637 43.6299C65.3112 43.2768 67.4454 39.7109 68.2815 37.972M61.3932 39.0554L62.1497 39.9382M32.6853 40.6204C33.9063 40.6873 36.6272 40.6445 37.742 39.9382" stroke="white" stroke-width="1.00124" stroke-linecap="round"/>
<path d="M36.1138 47.4921C36.5902 51.4266 38.8748 56.2783 49.4598 55.6017C44.805 57.5506 34.2494 58.9186 29.2648 48.799" stroke="white" stroke-width="1.50185" stroke-linecap="round"/>
<path d="M28.1985 39.5107C29.4539 34.147 35.4237 24.6658 49.26 29.6508C45.9691 28.6244 39.7118 28.3063 36.1137 38.6574" stroke="white" stroke-width="1.50185" stroke-linecap="round"/>
<path d="M43.2532 31.8156V35.4944" stroke="white" stroke-width="0.721336" stroke-linecap="round"/>
<path d="M52.8131 30.2345L59.3117 23.8081M54.7266 32.1841L63.933 24.7468M46.7476 26.552L48.0113 23.4109M48.4084 22.4361L49.9248 18.4647M50.2136 17.7065L51.1162 15.3959M42.9567 25.7938L43.5344 18.1759M43.8593 13.9156L43.6427 17.165M32.1978 28.5738L27.9376 23.4109M27.2516 22.4361L26.006 20.7573L24.7605 19.0785M39.3464 25.7938L38.9853 22.9055M38.8409 22.0029L38.0827 15.9736M37.9383 15.1071L37.7939 14.0601M24.4716 22.9055L30.9342 29.5486M61.2613 23.4109L57.9939 26.4797L54.7266 29.5486M55.9541 34.1337L63.933 29.8374M67.4712 30.5595L61.5141 33.1228M60.9725 36.7693L68.9153 34.567M61.1891 46.0841L69.5652 47.4921M56.6039 49.5139L67.1101 55.0739M54.0406 56.9874L60.2504 64.0276M49.0583 57.4928L52.5242 64.0276M52.9575 65.0385L54.5099 67.999M51.766 57.4928L56.6039 64.5331M47.578 59.6952L50.5385 67.7102M46.4588 62.1502L48.5528 70.2014M43.6066 59.1536L44.6897 66.6993M44.8341 67.7102L45.3757 70.8512M38.8409 59.1536L37.7939 66.6993M37.6495 67.8907L37.2524 70.8512M36.2776 59.984L33.4615 68.7572M29.129 68.3601L34.5446 57.4928M27.8654 61.3559L31.909 56.1931M27.1433 62.1502L24.5438 65.7245M17.6137 58.8768C18.1903 58.4803 23.2838 54.9005 24.5438 53.9186M26.8545 52.2578L27.5766 51.644M15.7345 55.1822L22.6303 51.9329M13.821 50.1999L23.569 48.2864M20.1753 46.3729L25.0132 45.8674M13.2073 38.069L16.5288 38.6106M18.6589 39.0438L25.0132 39.9464M16.5288 28.5738L25.2659 33.4117M22.9914 26.552L28.7319 31.4982M25.2659 37.3109L21.1862 36.3M18.6589 35.6501L14.0377 34.4226" stroke="white" stroke-width="0.2487" stroke-linecap="round" stroke-dasharray="0.43 0.43"/>
<path d="M49.9369 27.9884L56.941 18.3487M51.6338 29.0715L59.8293 20.4427M54.0527 16.5796L48.4567 27.1941M46.9403 14.2328L46.146 19.0346M46.0016 19.9372L44.9185 26.1832M32.9501 15.1771L36.7248 26.1832M21.7399 21.7785L28.058 27.9884M28.7079 28.566L30.2604 30.0463M28.058 32.4291L23.2562 29.0715M22.4981 28.566L18.2739 25.7499M26.0723 35.6785L15.3134 31.3994M55.3886 33.2234L65.281 26.3998M56.941 36.2561L58.1685 35.6785M61.5984 34.2704C61.8872 34.2127 65.979 32.6096 67.9888 31.8154M58.1685 40.9857L60.1182 40.6969M57.7353 46.2569L69.2885 48.7841M54.7748 52.4306L60.1182 57.4851M60.9485 58.3877L63.4397 60.6261M43.0772 60.6261L43.7271 70.9879M28.3469 52.7916L19.5376 60.6261M62.3927 37.9169L69.2885 36.5811M64.0535 44.1989L69.8301 44.4878M55.7496 51.0948L65.281 58.2072M53.114 54.3441L60.1182 61.276M51.0561 58.2072L56.3273 66.9443M48.4205 64.9947L49.9008 69.7965M40.911 59.1098L40.4416 70.9879M35.712 58.2072L32.3544 66.6916M31.9572 67.7025L31.3435 69.291M33.0043 56.6186L27.1916 65.3557M22.0287 63.5866L29.9202 54.7654M14.3446 51.8284L22.0287 49.6907M60.3709 49.0007L67.375 51.4919M67.375 41.419H70.155M12.8223 40.5525H15.9994M17.8407 40.5525L24.1227 40.7691M16.9742 44.0545L19.4292 43.874M22.4981 45.0654L24.9892 44.921M13.075 46.1846C13.3349 46.1846 14.6756 45.9921 15.3134 45.8958" stroke="white" stroke-width="0.7461" stroke-linecap="round"/>
<path d="M36.47 20.118L37.878 26.1473" stroke="white" stroke-width="0.2487" stroke-linecap="round" stroke-dasharray="0.43 0.43"/>
<path d="M28.6001 16.8679L34.3612 27.2434M27.2643 20.1172L32.8965 28.0961" stroke="white" stroke-width="0.2487" stroke-linecap="round" stroke-dasharray="0.43 0.43"/>
<line x1="40.8261" y1="13.93" x2="40.8261" y2="25.5919" stroke="white" stroke-width="0.62175" stroke-linecap="round"/>
<path d="M68.0488 39.8578L70.4742 39.494" stroke="white" stroke-width="0.242534" stroke-linecap="round" stroke-dasharray="0.49 0.49"/>
</g>
<defs>
<filter id="filter0_d_6_9282" x="69.5111" y="23.3224" width="149.644" height="40.54" filterUnits="userSpaceOnUse" color-interpolation-filters="sRGB">
<feFlood flood-opacity="0" result="BackgroundImageFix"/>
<feColorMatrix in="SourceAlpha" type="matrix" values="0 0 0 0 0 0 0 0 0 0 0 0 0 0 0 0 0 0 127 0" result="hardAlpha"/>
<feOffset/>
<feGaussianBlur stdDeviation="5"/>
<feComposite in2="hardAlpha" operator="out"/>
<feColorMatrix type="matrix" values="0 0 0 0 0.913725 0 0 0 0 0.65098 0 0 0 0 0.627451 0 0 0 0.8 0"/>
<feBlend mode="normal" in2="BackgroundImageFix" result="effect1_dropShadow_6_9282"/>
<feBlend mode="normal" in="SourceGraphic" in2="effect1_dropShadow_6_9282" result="shape"/>
</filter>
<filter id="filter1_d_6_9282" x="0.072876" y="0.633423" width="83.3665" height="83.0943" filterUnits="userSpaceOnUse" color-interpolation-filters="sRGB">
<feFlood flood-opacity="0" result="BackgroundImageFix"/>
<feColorMatrix in="SourceAlpha" type="matrix" values="0 0 0 0 0 0 0 0 0 0 0 0 0 0 0 0 0 0 127 0" result="hardAlpha"/>
<feOffset/>
<feGaussianBlur stdDeviation="5"/>
<feComposite in2="hardAlpha" operator="out"/>
<feColorMatrix type="matrix" values="0 0 0 0 0.913725 0 0 0 0 0.65098 0 0 0 0 0.627451 0 0 0 0.8 0"/>
<feBlend mode="normal" in2="BackgroundImageFix" result="effect1_dropShadow_6_9282"/>
<feBlend mode="normal" in="SourceGraphic" in2="effect1_dropShadow_6_9282" result="shape"/>
</filter>
</defs>
</svg>
